<svg xmlns="http://www.w3.org/2000/svg" viewBox="0 0 2885.79 1552.26"><defs><style>.cls-1{fill:#323232;}.cls-2{fill:#fff;}.cls-3{fill:#d8d8d8;}.cls-4{fill:#0d7377;}.cls-5{fill:#4a97aa;}.cls-6{fill:#ffb27d;}.cls-7{fill:#14ffec;}.cls-8{fill:#fca759;}.cls-9{fill:#14ffed;}.cls-10{fill:#12d8c5;}.cls-11{fill:#2bedcd;}.cls-12{fill:#dbfafc;}.cls-13{fill:#43ffef;}.cls-14{fill:#17e5cc;}.cls-15{fill:#43f9e9;}.cls-16{opacity:0.5;}.cls-17{fill:#686868;}.cls-18{fill:#7c7c7c;}.cls-19{fill:#3f3f3f;}.cls-20{fill:#ffad76;}.cls-21{fill:#fca165;}.cls-22{fill:#08adad;}.cls-23{fill:#35bec6;}.cls-24{fill:#eff8ff;}.cls-25{fill:#ffbf94;}.cls-26{fill:#212121;}</style></defs><title>contact_2_2</title><g id="Layer_2" data-name="Layer 2"><g id="Слой_1" data-name="Слой 1"><path class="cls-1" d="M106.75,1551.44S-148.8,1162.76,130.88,742C379,368.6,770.56,665.49,992.42,285.58,1295-232.52,2804.82-30.19,2613.6,766.91c-92.53,385.74,420,399.76,229.33,785.35Z"/><path class="cls-2" d="M1944.37,774.76s-46.16-61.2,2.87-95.18c0,0,35.41-18.52,63.13-15.11,0,0-43.55,63.65-31.21,71s43.42-74.43,43.42-74.43,78.13-2.68,102.36,10.89c0,0-69.78,50.18-56,54.29s88.82-44.74,88.82-44.74,71.51,16.81,64.9,60.66-32.36,55.91-43.23,54.06-73.38-30.3-75.33-21.42,34.75,40.6,61.66,43.66c0,0-54.47,53-87.32,34.68s-34.14-44.22-54.65-55.18-38.53-12.06-30.43-1.69,45.71,22.33,56.45,44.43,20.67,37.19-14,29.73-90.06-36.65-90.73-66.17Z"/><path class="cls-2" d="M2187.07,741.14s-195.84-19.82-242.7,33.62c0,0-11.38,28.11-42.51,52.42l-5.38,12.25s36.25-33.75,48.56-35.16C1945,804.27,1930.35,733.53,2187.07,741.14Z"/><path class="cls-2" d="M1901.86,827.18s-44.09,28.53-50.49,84l7.61,1.16s17-56.73,42.78-77.73S1901.86,827.18,1901.86,827.18Z"/><path class="cls-3" d="M1717.9,628.46s-102.35-57.32-54.59-135.1c0,0,38.21-47.77,79.15-60.05,0,0-21.83,116,0,118.73s15-131,15-131,107.81-51.86,150.12-47.76c0,0-66.87,113.26-45,110.53s96.9-117.36,96.9-117.36,110.53-20.47,128.28,45-10.92,98.25-27.3,102.35S1939,516.56,1941.7,530.2s73.7,35.49,113.27,23.2c0,0-43.67,107.81-101,102.35s-75.06-40.94-110.54-43.67-61.41,6.83-43.67,16.38,77.78,3.13,106.44,27.49,51.86,39.38-1.36,50.3S1756.11,710.34,1737,669.4Z"/><path class="cls-2" d="M2037.23,432s-286.58,92.79-319.33,196.51c0,0,1.36,46.4-27.3,99.62v20.47s30-69.6,46.4-79.15C1737,669.4,1672.86,579.33,2037.23,432Z"/><path class="cls-2" d="M1690.6,728.08s-44.19,67.12-19,148.81l11.37-3s-11-90,12.09-135.24S1690.6,728.08,1690.6,728.08Z"/><path class="cls-3" d="M1178.16,657.83s119.11-50.4,76.19-141.43c0,0-36.08-57-79.46-75.4,0,0,9.87,129.76-14.39,130.11s-.57-145.39-.57-145.39-111.86-69.89-158.72-70.53c0,0,59.55,132.23,36,126.59s-92-140.35-92-140.35-118.65-35.83-146,33.8.05,109,17.5,115.47S949.45,508.41,944.81,523s-85.06,30-126.94,11.7c0,0,34.79,123.44,98.26,124.4s87.21-35.77,126.43-34.46,66.47,14.92,45.87,23.24-85.62-6-120,17.23-61.6,36.87-4.6,55.28,162.51,22.51,188.41-20Z"/><path class="cls-2" d="M852,403.78s302.81,136.43,326.13,254.05c0,0-7.12,50.69,17.83,112.48l-2.48,22.44s-24.46-79.91-41.25-92.37C1152.26,700.38,1233.46,609.45,852,403.78Z"/><path class="cls-2" d="M1196,770.31s40.3,78.91,2.79,165.38L1186.69,931s23-97.28,3.15-149.67S1196,770.31,1196,770.31Z"/><path class="cls-2" d="M933.85,950.37c-21.05-30.37-23.39-58.64-23.39-58.64s58.24-41.82,23.9-85.8c0,0-26.47-26.39-52.18-31,0,0,21.2,69,8.13,72.11s-18.09-78.54-18.09-78.54-69-24.12-94.44-18.74c0,0,48.36,64.22,34.92,64.06s-66.89-64.65-66.89-64.65-68.53-4.87-74.83,36.13,13.36,58.93,23.58,60.29,74-6.65,73.24,1.83S725.47,874,700.59,869.21c0,0,33.9,62.49,68.34,55.25s42.79-30,64.15-34.09,37.77-.06,27.64,7-47,7.22-62.77,24-28.8,27.47,4.27,30.46,90.63-7.7,99.43-33.87c.39-1.14.75-2.23,1.1-3.27a13.28,13.28,0,0,1-1.1,3.27c6.36,2.81,17.17,18.39,24.81,30.42,1.13,2.06,2.87,4.9,5.4,8.74h0c1,1.74,1.89,3.17,2.47,4.17,14.61,27.23,14.12,77.14,14.12,77.14l7.12,1.08C965.29,988.1,933.85,950.37,933.85,950.37Z"/><path class="cls-4" d="M544.58,251.39c-.57-3.15-8-36.87-60.13-31.12,0,0,26-.66,32,9.92,0,0-19.39-11.34-32.9-4.83s-18.22,32.52-17.12,40.69,12.78,33.32,22.09,34.25a27.82,27.82,0,0,0,10.88-1.57,125.21,125.21,0,0,0-5.17,13.46c-14.54,45.52,12.85,84,29.72,76.83,10.82-4.57,16.79,14.15,16.79,14.15l96.41-104.3S585,221.66,544.58,251.39Z"/><path class="cls-5" d="M670.19,1507.61l-23.45,8.73S544.89,1375.08,532.35,1250.8c-2.24-22.19-1.49-43.69,3.35-63.54,0,0-1-5.69-2.74-15.74-.8-4.69-1.8-10.34-2.93-16.81-3.31-19-7.87-44.93-13.07-74.49-12-68-27.51-155-39.57-218.89l6.31-2,68.37-22.06,14.13-44.87L617.1,779s11.37,22.24,21.54,127.33c1.87,13.78,3.58,29,4.86,45.46a900.29,900.29,0,0,1-4.84,184.08q-3.51,27.39-8.94,56.49c-2.68,14.2-3.09,33.56-2,55.79C632.89,1349.71,670.19,1507.61,670.19,1507.61Z"/><path class="cls-5" d="M643.5,951.76,533,1171.52c-.8-4.69-1.8-10.34-2.93-16.81-3.31-19-7.87-44.93-13.07-74.49-12-68-27.51-155-39.57-218.89l6.31-2,68.37-22.06,14.13-44.87L617.1,779s11.37,22.24,21.54,127.33C640.51,920.08,642.22,935.28,643.5,951.76Z"/><path class="cls-5" d="M594.87,807.17l-2.56-21.94c-42.87,11.38-157.41-31.82-157.41-31.82s-41.53,36.51-36.08,124c2.66,42.71,7.52,224.21,12.6,277.92,1.83,19.47,3.44,33.32,4.1,38.85a.13.13,0,0,1,0,0,7.67,7.67,0,0,1-1.25,4.76,253.31,253.31,0,0,0-18.74,39.41c-49.83,132.81,7.68,296.36,7.68,296.36l14.92-6s32.73-182,59.33-262.43c4.51-13.63,8.84-24.35,12.8-30.76,11.57-18.66,22.3-49.15,32-85.42,18.4-68.56,33.22-157.76,43.08-226.61C566.75,923.62,594.87,807.17,594.87,807.17Z"/><path class="cls-6" d="M664,631.28a28.88,28.88,0,0,0,2.64,2.52c36.64,34.14,86,64.33,112.39,71,17.36,4.45,55.65-1.5,87.45-8,21.18-4.18,39.63-8.8,47.24-10.61,2.42-.57,3.78-1,3.78-1l-3.32-21.45s-19.06-1.51-42.74-4.18c-33-3.88-74.79-9.83-85.5-16.15-24.84-14.77-68.43-76.67-103.4-115.6-1.83-2.12-3.65-4.16-5.45-6.16-1.31-1.46-2.63-2.89-3.94-4.3a4.63,4.63,0,0,0-1-1c-1.61-1.54-3-3-4.29-4.24-.06-.16-.28-.27-.51-.4-6.21-6.25-17.11-13.82-17.11-13.82-6.11-3.49-11.15-4.16-14.69-1.19a56.5,56.5,0,0,0-9,12.9c-1,1.77-1.89,3.71-2.78,5.83a13.38,13.38,0,0,0-1.47,3.62,74,74,0,0,0-4.74,29,91.53,91.53,0,0,0,5.75,28.68C629.35,593.92,644.78,613.09,664,631.28Z"/><path class="cls-6" d="M632.09,540.84c-12.42,8.11-27.9,14.65-47.2,18.54-72.36,14.58-98.2-47-107.37-89a61.73,61.73,0,0,1,24.57-6.79c5.21-.47,10.69-.72,15.22-.82,8.25-5.95,21-30.92,24.76-70.14l3.35,1,56.22,17.11s-3.1,17.94-4.85,34.92c-1.36,13.3-1.87,26,.56,29.21,4.4,1.08,7,1.78,7,1.78l0,.06A364.62,364.62,0,0,1,632.09,540.84Z"/><path class="cls-7" d="M657.28,586.05c-.33,1.54-.74,3.05-1.19,4.6-12.7,42.47-23,212.24-23,212.24,6.73,21.22-116.64,25.57-184.68,15.77-24.74-3.56-42.16-9-43.35-16.16-12.18-27.44,17.61-78.69,34.81-104.74a66.2,66.2,0,0,0,10.92-38.83c-.51-13.46-1.66-26.53-3.07-38.78-2.63-23.09-6.15-43.25-8-57.52h0c3.57-3.55,7.06-6.86,10.3-10,4.95-4.84,9.29-9.32,12.34-13.67,3.35-4.74,5.21-9.36,4.8-14.22a72.51,72.51,0,0,0-1.9-11.06q-.65-2.59-1.43-5.18c-5.52-18.1-15.69-33.76-15.69-33.76,18.42-10.77,53.9-11.11,53.9-11.11s.25,1.95.69,5.11c1.73,12.73,6.59,45.36,11.56,50.94,6.21,7,104.32,27.13,107.74,16,3.36-11-16.9-57.14-17.66-58.89a.12.12,0,0,1,0-.06c31.42,7.47,45.07,15.92,45.69,16.41h0C633,508,666.23,545.35,657.28,586.05Z"/><path class="cls-8" d="M601.65,410.79s-3.12,17.92-4.86,34.92c-32-4.11-46-35.1-51.37-52Z"/><path class="cls-6" d="M610.76,428s-76.08-6.36-71.39-53.67-2-80,46.79-77.94,56.4,21,58.68,37.21S630.66,428.4,610.76,428Z"/><path class="cls-4" d="M645.21,307c-10.31-15.4-19.5-13.17-24.9-9.39-39.22-27-69.35,4.09-69.35,4.09-8.48,33.43-34.9,50.43-34.9,50.43s13,9.93,45.72,4.92c10-1.53,19.39-7.59,27.63-15.25A177.81,177.81,0,0,1,555.19,376c39.88-13.8,60.5-65.28,62.58-70.74,4.22,4.63,12.46,14.59,14.36,23.73,2.58,12.43,1.8,37.4,9.11,37.28C641.24,366.3,660.68,330.14,645.21,307Z"/><path class="cls-6" d="M984.62,660.86c-7.6,7.25-15.3,25.38-38.73,25a339.77,339.77,0,0,0-41.83,2.75c-3.19.56-5,.78-5,.78l-.83-26.54a4.92,4.92,0,0,0,1.1-.1c5.66-.85,34.4-5.27,45.78-12.81,12.78-8.57,42.64-.63,42.64-.63S992.29,653.75,984.62,660.86Z"/><path class="cls-9" d="M490,1547H371.89s-2.83-18,3.33-31.66c5.92-13.1,15.17-19.06,13-34.91,7.5,7.72,19.73,16.38,36.81,14.08,2.09,3.39,13.5,21.54,20.49,26.56C453.2,1526.6,487.61,1524.62,490,1547Z"/><path class="cls-9" d="M743.57,1547H625.47s-4.42-18.84,3.34-31.66c6.86-11.34,4.23-17.8-.85-27.19a45.82,45.82,0,0,0,19.89,3.75c5.88-.34,12.1-3,17.56-6.18,5.08,5.8,26.85,30.46,33.65,35.35C706.78,1526.6,741.19,1524.62,743.57,1547Z"/><path class="cls-2" d="M592.61,400.6s1.07,6.27,16.48,6.28c0,0,12.94,0,13-6.79C622.06,400.09,609.87,394.47,592.61,400.6Z"/><path class="cls-10" d="M464.56,701.33c-4.67,29.59-26.07,89-16.12,117.33-24.74-3.56-42.16-9-43.35-16.16-12.18-27.44,17.61-78.69,34.81-104.74a66.2,66.2,0,0,0,10.92-38.83c-.51-13.46-1.66-26.53-3.07-38.78C447.75,620.15,469.53,669.88,464.56,701.33Z"/><path class="cls-7" d="M631.74,501.68c.82,26.31,19.84,98.51,24.35,89,5.16-10.88,25.13-52.19,34.51-53.72-.5-1.9-38.88-44.35-40.56-43.85C650,493.09,639.61,496.27,631.74,501.68Z"/><path class="cls-6" d="M450.65,874.76l-19.6,13s-4.95-6.2-12.8-16.11c-2.35-3-3.61-4.77-3.61-4.77-6.21-8-13.43-17.82-21.32-28.47l-.14-.12c-13.23-18.59-27.76-39.72-38.88-58.83-7.73-13.55-13.75-26.09-16.69-36a21,21,0,0,1-.7-3c-5.75-25,4.79-74.66,21.58-123.1,2.31-6.7,4.75-13.29,7.08-19.73,8.93-23.76,19-46.09,29-64.14,5.91-10.84,11.81-20.3,17.48-27.36a78,78,0,0,1,5.82-6.94c1.08-1.23,2.17-2.41,3.23-3.54,11.77,1,36.46,5.66,54.79,26.82-.31,1.12-.64,2.23-1,3.36-7.41,23.9-18.86,53.23-30.72,82-6.45,15.79-13.05,31.46-18.83,46.19-3.67,8.81-7,17.21-10,25-5.64,14.85-9.82,27.21-11.49,35.88-1.12,5.61.48,16.19,3.52,29.19,5.2,22.66,15.1,53.17,24.3,79.07,3.76,10.81,7.47,20.87,10.57,29.21C447.28,865.94,450.65,874.76,450.65,874.76Z"/><path class="cls-7" d="M459.21,597.39c-19.57-29.54-75.66-42.24-75.66-42.24C415.2,454.72,498.3,464,498.3,464S468.07,568.51,459.21,597.39Z"/><path class="cls-6" d="M431.05,887.81s5.15,7.59,5.72,13.06,5.47,23.59,11.8,29.34,20.71,17.26,22.72,15.53,7.84-15.29,2.44-24.88c-2.44-4.33-5.74-16.4-10.11-19.32-5.29-3.55-13-26.78-13-26.78Z"/><path class="cls-6" d="M450.73,877.71s15.58,7.91,17.69,14.24,10.81,19.09,9.92,20.57-14.5-7-19.1-14.91S450.73,877.71,450.73,877.71Z"/><path class="cls-11" d="M821.51,804.12l570.6-341.61a99.53,99.53,0,0,1,102.21,0l570.6,341.61v556.76L821.51,1298.53Z"/><rect class="cls-12" x="928.54" y="557.43" width="1029.35" height="889.56"/><circle class="cls-4" cx="970.54" cy="596.24" r="10.58" transform="translate(-154.29 416.8) rotate(-22.5)"/><path class="cls-4" d="M1904.67,596.24a10.59,10.59,0,1,1,10.58,10.59A10.58,10.58,0,0,1,1904.67,596.24Z"/><rect class="cls-4" x="970.54" y="595.09" width="944.71" height="2.3"/><rect class="cls-4" x="969.39" y="592.04" width="2.3" height="944.71"/><rect class="cls-4" x="1914.47" y="592.04" width="2.3" height="944.71"/><polygon class="cls-13" points="2064.91 802.58 2064.91 1546.97 821.51 1546.97 821.51 802.58 1443.21 1174.78 2064.91 802.58"/><path class="cls-14" d="M821.51,1547,1391,1138.67a89.56,89.56,0,0,1,104.38,0L2064.92,1547Z"/><path class="cls-4" d="M1633,680.67h-375.3a9.94,9.94,0,0,1-9.91-9.91h0a9.94,9.94,0,0,1,9.91-9.91H1633a9.94,9.94,0,0,1,9.91,9.91h0A9.94,9.94,0,0,1,1633,680.67Z"/><path class="cls-4" d="M1729.68,720.43H1161a9.94,9.94,0,0,1-9.91-9.91h0a9.94,9.94,0,0,1,9.91-9.91h568.64a9.94,9.94,0,0,1,9.91,9.91h0A9.94,9.94,0,0,1,1729.68,720.43Z"/><path class="cls-4" d="M1655.94,843.73H1244.51a7.18,7.18,0,0,1-7.17-7.17h0a7.19,7.19,0,0,1,7.17-7.17h411.43a7.2,7.2,0,0,1,7.17,7.17h0A7.19,7.19,0,0,1,1655.94,843.73Z"/><path class="cls-4" d="M1285.82,881.17h-116a7.19,7.19,0,0,1-7.17-7.17h0a7.19,7.19,0,0,1,7.17-7.16h116A7.19,7.19,0,0,1,1293,874h0A7.19,7.19,0,0,1,1285.82,881.17Z"/><path class="cls-4" d="M1460.78,881.17H1320.62a7.19,7.19,0,0,1-7.17-7.17h0a7.19,7.19,0,0,1,7.17-7.16h140.16A7.19,7.19,0,0,1,1468,874h0A7.19,7.19,0,0,1,1460.78,881.17Z"/><path class="cls-4" d="M1730.63,881.17H1488.34a7.19,7.19,0,0,1-7.17-7.17h0a7.19,7.19,0,0,1,7.17-7.16h242.29a7.19,7.19,0,0,1,7.17,7.16h0A7.19,7.19,0,0,1,1730.63,881.17Z"/><path class="cls-4" d="M1461.7,924.71H1236.34a7.19,7.19,0,0,1-7.16-7.17h0a7.19,7.19,0,0,1,7.16-7.17H1461.7a7.2,7.2,0,0,1,7.17,7.17h0A7.2,7.2,0,0,1,1461.7,924.71Z"/><path class="cls-4" d="M1664.1,924.71H1486.6a7.2,7.2,0,0,1-7.17-7.17h0a7.2,7.2,0,0,1,7.17-7.17h177.5a7.2,7.2,0,0,1,7.17,7.17h0A7.2,7.2,0,0,1,1664.1,924.71Z"/><path class="cls-15" d="M1525,1013.22a286.29,286.29,0,0,1-43.34,29.2c1.29-4.05,2.37-8.26,2.17-12-.27-5.15-4.39-7.42-8.51-9.56-1-.52-2-1.09-2.92-1.65a5.25,5.25,0,0,0,1.37-6.11c-1.74-3.91-6.62-3.28-8.27.34a6.51,6.51,0,0,0-.57,2,4.92,4.92,0,0,1-1.6-1.26c2.51-4.69,4.88-9.47,7.06-14.35a2.68,2.68,0,0,0-1-3.06,8.38,8.38,0,0,0-11.47,1.59c-3.45,4.06-2.58,10.26-.93,14.88.12.32.25.64.38,1q-4.8,8.67-10.41,16.85c-.34-.35-.7-.7-1-1a23.29,23.29,0,0,1-2.91-3.5,50.78,50.78,0,0,0,3.21-14c.18-2.17-2-3.23-3.81-2.56a11.28,11.28,0,0,0-7.07,12.2,15.28,15.28,0,0,0,1.64,5.12,47.37,47.37,0,0,1-4,7.06,2.47,2.47,0,0,0,.9,3.66c-1.64,5.48-3.86,11.09-7.64,15-3.09,3.23-8.85,5.67-12.61,1.84-2.38-2.42-2.68-6.47-3-9.67a176.76,176.76,0,0,1-1.11-24,36.6,36.6,0,0,1,1.83-11.13c.8-2.21,1.91-5.55,3-1.75.52,1.87-.2,4.76-.39,6.66-.34,3.39,4.92,3.78,5.26.41.4-4,2.18-12.32-2.32-14.82-3.73-2.06-7.16.9-8.89,4-6.21,11.16-3.74,26.48-2.8,38.6.74,9.68,4.36,21.54,16.71,18.46,11.62-2.89,15.89-17.54,18.56-27.62a2.6,2.6,0,0,0-.08-1.69l.14-.25,1.45,1.45c.69.61,1.34,1.25,2,1.91-1.22,1.7-2.47,3.37-3.74,5a2.68,2.68,0,0,0,.21,3.22c3.91,4.71,10.94,1.22,10.8-4.57a8.74,8.74,0,0,0-.88-3.62q5.51-7.92,10.28-16.3a8.29,8.29,0,0,0,6.34,2.54,5,5,0,0,0,.53,0,20,20,0,0,0,4.6,3.5c1.5.84,3.23,1.36,4.58,2.47,2.5,2,1.76,4.38,1.21,7.3a115.85,115.85,0,0,1-3.07,11.38c-5.31,3-10.55,6.93-12.34,13-1.63,5.57-.18,11.45,4.6,14.91a2.67,2.67,0,0,0,4-1.32c3-7.37,5.7-14.85,8-22.47.07-.24.15-.48.23-.73,4.69-2.66,9.6-5,14.23-7.76a269.8,269.8,0,0,0,35-24.73C1531.1,1015,1527.62,1011.05,1525,1013.22Zm-64.13-7c-.05-2.11,1.07-6,3.5-5.93-1.1,2.38-2.24,4.73-3.42,7.07C1460.92,1007,1460.89,1006.56,1460.88,1006.19Zm6.7,61c-2.22-4.15,1-9.29,4.59-12.68C1470.75,1058.76,1469.21,1063,1467.58,1067.17Z"/><g class="cls-16"><polygon class="cls-17" points="1420.99 192.12 1474.59 310.38 1277.05 399.91 1223.45 281.65 1349.02 296.01 1420.99 192.12"/><path class="cls-18" d="M1223.45,281.65,1421,192.12l-59.06,99.54a21.94,21.94,0,0,1-22.67,10.41Z"/></g><g class="cls-16"><polygon class="cls-17" points="259.65 964.33 287.85 1039.94 161.54 1087.04 133.35 1011.42 210.6 1025.68 259.65 964.33"/><path class="cls-18" d="M133.35,1011.42l126.3-47.09-40.86,59.2a13.63,13.63,0,0,1-14.51,5.49Z"/></g><g class="cls-16"><polygon class="cls-17" points="2422.64 514.27 2383.01 662.75 2135 596.56 2174.62 448.08 2278.82 555.42 2422.64 514.27"/><path class="cls-18" d="M2174.62,448.08l248,66.19-128.73,46.84a26,26,0,0,1-28.58-7.48Z"/></g><path class="cls-19" d="M205.23,1298.66h0c-6,0-11.81-.1-17.29-.25a1.15,1.15,0,0,1,.06-2.3c5.46.15,11.26.23,17.23.25a1.15,1.15,0,0,1,0,2.3Zm17.28-.13a1.15,1.15,0,0,1,0-2.3c5.53-.09,11.34-.24,17.27-.43a1.11,1.11,0,0,1,1.18,1.11,1.14,1.14,0,0,1-1.11,1.19c-5.94.19-11.76.34-17.3.43Zm-51.78-.86h-.07c-6.09-.36-11.89-.84-17.26-1.41a1.15,1.15,0,0,1-1-1.27,1.16,1.16,0,0,1,1.27-1c5.32.57,11.09,1,17.15,1.41a1.15,1.15,0,0,1-.07,2.3Zm86.34-.26a1.15,1.15,0,0,1-.06-2.3c5.54-.26,11.35-.56,17.25-.9a1.17,1.17,0,0,1,1.22,1.08,1.16,1.16,0,0,1-1.09,1.22c-5.91.34-11.72.64-17.27.9Zm34.51-2a1.15,1.15,0,0,1-.08-2.29q8.5-.59,17.23-1.24a1.15,1.15,0,1,1,.17,2.29q-8.73.66-17.24,1.24Zm-155.15-1.55-.2,0a135.86,135.86,0,0,1-16.92-4,1.15,1.15,0,0,1,.7-2.2,132.55,132.55,0,0,0,16.63,4,1.15,1.15,0,0,1-.21,2.29ZM326,1292.8a1.16,1.16,0,0,1-1.15-1,1.15,1.15,0,0,1,1.05-1.24q8.52-.72,17.21-1.51a1.15,1.15,0,0,1,.21,2.29q-8.7.8-17.22,1.51Zm34.42-3.12a1.15,1.15,0,0,1-.11-2.3q8.53-.83,17.19-1.72a1.17,1.17,0,0,1,1.26,1,1.15,1.15,0,0,1-1,1.26q-8.65.9-17.2,1.72Zm34.38-3.53a1.15,1.15,0,0,1-.12-2.3q8.53-.91,17.16-1.89a1.15,1.15,0,0,1,1.28,1,1.16,1.16,0,0,1-1,1.28q-8.62,1-17.18,1.89Zm-290.73-3.6a1.15,1.15,0,0,1-.68-.22,21.93,21.93,0,0,1-7.15-8.17,51.42,51.42,0,0,1-2.56-6.5,1.15,1.15,0,1,1,2.2-.69,47.43,47.43,0,0,0,2.44,6.21,19.68,19.68,0,0,0,6.43,7.29,1.15,1.15,0,0,1-.68,2.08Zm325.07-.27A1.15,1.15,0,0,1,429,1280q8.55-1,17.16-2a1.15,1.15,0,0,1,.27,2.29l-17.16,2Zm34.3-4.16a1.15,1.15,0,0,1-.14-2.29q8.52-1.07,17.08-2.17a1.15,1.15,0,1,1,.29,2.28q-8.55,1.11-17.08,2.17Zm34.19-4.4a1.15,1.15,0,0,1-.15-2.29l17.13-2.29a1.15,1.15,0,0,1,1.3,1,1.17,1.17,0,0,1-1,1.3l-17.14,2.29Zm34.29-4.64a1.15,1.15,0,0,1-.15-2.29l17.11-2.39a1.15,1.15,0,0,1,.32,2.28l-17.12,2.39Zm34.22-4.83A1.15,1.15,0,0,1,566,1262l17.09-2.48a1.15,1.15,0,1,1,.34,2.27q-8.54,1.26-17.1,2.49Zm34.19-5a1.15,1.15,0,0,1-.17-2.29l17.09-2.56a1.15,1.15,0,1,1,.34,2.27q-8.5,1.29-17.09,2.57Zm34.17-5.17a1.15,1.15,0,0,1-.17-2.29l17.07-2.64a1.15,1.15,0,1,1,.35,2.27l-17.08,2.64Zm-540.85-2.62a.91.91,0,0,1-.23,0,1.14,1.14,0,0,1-.9-1.35,36.31,36.31,0,0,1,7.71-15.71,1.15,1.15,0,0,1,1.79,1.44,34,34,0,0,0-7.24,14.72A1.15,1.15,0,0,1,93.69,1251.45Zm575-2.71a1.15,1.15,0,0,1-.17-2.28q8.6-1.37,17.06-2.72a1.15,1.15,0,1,1,.36,2.27q-8.46,1.37-17.06,2.72Zm34.13-5.46a1.15,1.15,0,0,1-.18-2.29l17-2.78a1.15,1.15,0,1,1,.37,2.27l-17,2.78Zm34.11-5.6a1.17,1.17,0,0,1-1.14-1,1.15,1.15,0,0,1,1-1.32l17-2.85a1.14,1.14,0,0,1,1.32.94,1.15,1.15,0,0,1-.94,1.33l-17,2.85ZM771,1232a1.15,1.15,0,0,1-.19-2.29l17-2.9a1.15,1.15,0,1,1,.38,2.26l-17,2.91Zm34.07-5.85a1.15,1.15,0,0,1-.19-2.28l17-3a1.15,1.15,0,0,1,.4,2.26q-8.31,1.47-17,3Zm-691.17-1.39a1.15,1.15,0,0,1-.66-2.09,112.73,112.73,0,0,1,15.09-8.74,1.15,1.15,0,0,1,1,2.07,111.35,111.35,0,0,0-14.78,8.55A1.15,1.15,0,0,1,113.91,1224.72Zm725.24-4.58a1.15,1.15,0,0,1-.2-2.28l17-3a1.14,1.14,0,0,1,1.33.93,1.16,1.16,0,0,1-.93,1.34l-17,3A.68.68,0,0,1,839.15,1220.14Zm34.06-6.09a1.15,1.15,0,0,1-.21-2.28l17-3.1a1.15,1.15,0,0,1,.41,2.27c-5.33,1-11,2-17,3.09A.71.71,0,0,1,873.21,1214.05Zm-728.46-4.73a1.16,1.16,0,0,1-1.08-.75,1.15,1.15,0,0,1,.68-1.48c5.1-1.9,10.64-3.75,16.48-5.49a1.15,1.15,0,1,1,.66,2.2c-5.79,1.73-11.29,3.56-16.34,5.44A1.14,1.14,0,0,1,144.75,1209.32Zm762.52-1.49a1.16,1.16,0,0,1-.21-2.29l17.05-3.17a1.15,1.15,0,0,1,1.34.92,1.14,1.14,0,0,1-.92,1.34c-4.85.91-10.55,2-17,3.18Zm34.12-6.4a1.15,1.15,0,0,1-.22-2.28l2-.38a1.18,1.18,0,0,1,1.41,1.12c0,.95-.11,1-2.95,1.52Zm-763.54-2.1a1.15,1.15,0,0,1-.27-2.26c5.38-1.32,11.08-2.6,16.93-3.8a1.15,1.15,0,1,1,.46,2.25c-5.82,1.2-11.49,2.47-16.84,3.78A1.33,1.33,0,0,1,177.85,1199.33Zm33.9-7a1.15,1.15,0,0,1-.2-2.29c5.52-1,11.28-1.86,17.12-2.7a1.15,1.15,0,1,1,.34,2.27c-5.83.85-11.57,1.75-17.07,2.7Zm34.25-5a1.15,1.15,0,0,1-.14-2.29c5.67-.69,11.47-1.33,17.23-1.9a1.17,1.17,0,0,1,1.26,1,1.15,1.15,0,0,1-1,1.25c-5.74.57-11.52,1.21-17.17,1.89Zm34.45-3.41a1.15,1.15,0,0,1-.08-2.3c10.69-.82,17.34-1.1,17.41-1.1a1.12,1.12,0,0,1,1.19,1.1,1.15,1.15,0,0,1-1.1,1.2c-.06,0-6.68.28-17.33,1.1Z"/><polygon class="cls-19" points="979.85 1262.04 1121.6 1181.71 992.29 1189.35 1002.27 1211.19 975.56 1240.78 979.85 1262.04"/><polygon class="cls-2" points="1121.6 1181.71 973.06 1208.93 864.87 1284.06 1121.6 1181.71"/><polygon class="cls-2" points="992.29 1189.35 1121.6 1181.71 986.34 1142.07 992.29 1189.35"/><polygon class="cls-19" points="1746.58 206.58 1907.5 232.05 1801.6 157.47 1795.8 180.77 1756.47 187.28 1746.58 206.58"/><polygon class="cls-2" points="1907.5 232.05 1774.36 160.81 1642.92 152.18 1907.5 232.05"/><polygon class="cls-2" points="1801.6 157.47 1907.5 232.05 1826.4 116.78 1801.6 157.47"/><g id="girl_2" data-name="girl 2"><path class="cls-4" d="M2233.87,858.59s-32.82,2.28-57,61.36c-24.43,59.6,30.21,59,11.81,97s26.49,60.62,40.13,91.71,82.34,106.08,87.78,140.29,66.53-35.57,66.53-35.57,62.1-66.24,39.84-104.72c-36.7-63.43-4.91-77.21-6.06-112.63S2348.47,821,2233.87,858.59Z"/><path class="cls-20" d="M2216.05,1070.57s-127,55.37-151.16,54.32-172.82-45.29-172.82-45.29l3.79,25.58s114.74,66,154.86,69.74c39.5,3.68,174.55-35.45,187.59-43.71S2253.94,1078.94,2216.05,1070.57Z"/><path class="cls-6" d="M2205.8,1131.28c11.67,8.1,26.31,14.78,44.69,19,68.89,15.91,95.29-42.31,105.2-82.28a59.28,59.28,0,0,0-23.34-7.17c-5-.58-10.21-1-14.55-1.19-7.73-5.92-19.26-30.17-21.81-67.82l-3.24.87-54.29,14.86s2.49,17.26,3.71,33.57c.94,12.76,2.59,20.17.18,23.16-4.24.91-8.29,6.3-8.29,6.3a.12.12,0,0,1,0,.06A348.81,348.81,0,0,0,2205.8,1131.28Z"/><path class="cls-21" d="M2238.46,1007.58s2.49,17.24,3.7,33.57c30.76-3.08,45-32.37,50.59-48.43Z"/><path class="cls-6" d="M2229.27,1023.78s73-4,69.8-49.46,4.06-76.54-42.69-75.89-54.57,18.63-57.19,34.05S2210.2,1023.65,2229.27,1023.78Z"/><path class="cls-7" d="M2376.49,1279.71c6.59-33.7,28.09-168.36,6.59-211.69-7.72-15.57-38-17-71.25-15.6-10.34,6.67-49.76,31.91-65.94,28.76l-.91-.22c-7.62-1.9-9-12-2.63-16.66,0,0-18,3.2-38.42,7-11.54,2.17-42.69,18.29-42.69,18.29s15.68,28.33,38.81,38.11c-3.93,35.18,1.92,50.7,38.41,132,30.84,68.68-4.16,130.52-4.16,130.52s181.54,146,182.55,71.64C2417.61,1405.91,2368.06,1322.79,2376.49,1279.71Z"/><path class="cls-22" d="M2225.3,1548.93a33.75,33.75,0,0,1-24.28-14.78c-.88-1.31-1.81-2.72-2.81-4.23-20.66-31.28-28.7-127.08-75.18-229.14-11.32-24.84-52-29.31-63-57.4,0,0-27.28-91,52.2-93.73s212.86,253.31,215,280.16C2329.19,1455.82,2379.7,1566.35,2225.3,1548.93Z"/><path class="cls-9" d="M1909.41,1546.84h113.12s4.23-18-3.2-30.32c-6.57-10.87-4-17.06.82-26a44.06,44.06,0,0,1-19.05,3.59c-5.64-.33-11.6-2.89-16.83-5.92-4.87,5.55-25.71,29.18-32.23,33.86C1944.65,1527.32,1911.69,1525.43,1909.41,1546.84Z"/><path class="cls-7" d="M2364.56,1103.32s14.73,134-80.76,162-122.59-123.25-45.49-134.13S2364.56,1103.32,2364.56,1103.32Z"/><path class="cls-22" d="M2057.4,1176c-6.81,51.06-33.41,212.25-80.33,290.88-15.13,25.36,38.11,39.57,38.4,39.49,7.14-1.87,19-13.25,24.52-18.19,38.1-34.33,115.43-131.55,115.43-209.49,0-38,.66-110.58-27-129C2111.43,1138.27,2060.11,1155.69,2057.4,1176Z"/><path class="cls-23" d="M2292.76,1546.84s-4.2-5.84-11.51-16.92c-8.69-13.17-18.32-39.1-30-72.34-12.27-34.9-26.83-77.83-45-122.5-5.61-13.78-11.57-27.74-17.91-41.67-11.33-24.85-42.47-21.42-53.55-49.51,0,0-43.24-97.37,36.24-100.05s230.5,260.47,239.18,286C2419.69,1457.71,2466.05,1573.57,2292.76,1546.84Z"/><path class="cls-9" d="M1992.45,1546.84h113.12s4.23-18-3.2-30.32c-6.57-10.87-4-17.06.82-26a44.06,44.06,0,0,1-19.05,3.59c-5.64-.33-11.6-2.89-16.83-5.92-4.87,5.55-25.71,29.18-32.23,33.86C2027.69,1527.32,1994.73,1525.43,1992.45,1546.84Z"/><path class="cls-23" d="M2251.25,1457.58c-12.27-34.9-26.83-77.83-45-122.5,4.75-33.84,15-63.44,32.23-75.38C2238.46,1259.7,2280.26,1389.21,2251.25,1457.58Z"/><path class="cls-23" d="M2123.44,1172.35c-6.82,51.07-16.41,215.87-63.33,294.5-15.13,25.36,38.11,39.57,38.4,39.49,7.14-1.87,19-13.25,24.52-18.19,38.09-34.33,115.43-131.55,115.43-209.49,0-38-44.6-107.53-72.24-126C2149.2,1141.32,2126.14,1152.07,2123.44,1172.35Z"/><path class="cls-24" d="M1983.37,1038.42s-5.79-14.72-16.33-13.76-106.34,13.76-106.34,13.76,11.15,2.67,15.36,10l44.18,130.21h113.34Z"/><path class="cls-25" d="M2355.69,1068s-160.55,59.13-184.68,57.92c-15.59-.78-145.2-46.34-145.2-46.34l-11.64,22s126.15,81.08,160.83,80.68c68.47-.79,184-42.82,197.05-51.08S2393.59,1076.39,2355.69,1068Z"/><path class="cls-25" d="M2025.81,1079.6s-11.64-17.91-23.22-18.43-31.6,7.89-38.45,9.21-26.33,7.64-20.54,17.12,32.66,11.58,44.24,9.48,26.33,4.63,26.33,4.63Z"/><path class="cls-25" d="M2005.74,1061.72s-18.43-8.45-23.69-10-4.21,0-2.63,5,11,9.76,11,11.32S2005.74,1061.72,2005.74,1061.72Z"/><path class="cls-2" d="M2215.6,997.65s6.91-2.73,26.33-1.15c0,0-1,7.57-15.36,8.32C2218.46,1005.25,2215.6,997.65,2215.6,997.65Z"/><path class="cls-7" d="M2273,1097.18s14.36,45.46,63.68,55.81c0,0,81.44-25.09,40.89-80.58C2377.54,1072.41,2337.45,1042.62,2273,1097.18Z"/><path class="cls-2" d="M1860.7,1038.42s-10.64,4.07-2.59,17.88l103.56-13.81s-3.6-16,4.53-17.75Z"/><path class="cls-20" d="M1897.81,1072.41c2.45-9.84,2.3-12.22-3.26-18.23-3.68-4-9.31,5.87-12.22,11.82-1.07-2.63-2.89-6.9-3.51-7.11-.89-.31,1.24,13.23,1.24,13.23h0a15.81,15.81,0,0,0-.06,1.69h0s-4.49,19.9,15.09,30.66l-3.74-11C1893.61,1093.11,1895.31,1082.41,1897.81,1072.41Z"/><path class="cls-4" d="M2226.5,908.47s15.39-5.39,22.85,10.33,9.82,53.31,39.7,56.38,31-63.66,31-63.66L2245.29,882l-39.49,24.93Z"/><path class="cls-4" d="M2226.5,908.47s-16.85.36-20.7,14.55,2.16,40.66-7.17,42.57-17.81-44.1.24-59.06S2226.5,908.47,2226.5,908.47Z"/></g><path class="cls-6" d="M903.74,662.08s16.87-6.39,18.79-10.8,7.48-6.33,14.19-9.4,10.74-8.63,11.7-7.86,1.15,4.6-1.54,7.48-14,23-18.34,25.31S903.74,662.08,903.74,662.08Z"/><path class="cls-2" d="M2654.05,1546H2545.62c-5.81-4.93,4-16.12,14.3-16.87,4.46-.34,10.1.59,16.55,1.95,1.49-19.81,10-108.9,42.12-105.32,36.11,4,0,39.23-10.2,60.09-7.57,15.44-15.54,37.59-19.19,48.05,2.93.63,6,1.26,9.07,1.83,4.79-14.7,22.59-64.13,45.24-61.25,26.59,3.38,15.9,23.19-3,35-13.82,8.65-30.8,20.94-38.87,26.88a114.75,114.75,0,0,0,21.21,1.7C2641.47,1537.6,2650.54,1543.08,2654.05,1546Z"/><path class="cls-2" d="M224.07,1548.23S182.86,1435,153.92,1444.69,224.07,1548.23,224.07,1548.23Z"/><path class="cls-2" d="M208.29,1548.23c-3.51,0-69.28-68.26-73.66-50.39S208.29,1548.23,208.29,1548.23Z"/><path class="cls-2" d="M278.44,1548.23s-27.2-25-61.64-18.45-49.14,13.6-70.77,8.68-32.68,9.77-32.68,9.77Z"/><rect class="cls-26" x="881.72" y="1401.28" width="257.56" height="101.75" rx="21.66"/><path class="cls-1" d="M1074,1426.58H912.67a3.29,3.29,0,0,1-3.28-3.28h0a3.28,3.28,0,0,1,3.28-3.27H1074a3.29,3.29,0,0,1,3.28,3.27h0A3.29,3.29,0,0,1,1074,1426.58Z"/><path class="cls-1" d="M941.29,1440.71H912.67a3.28,3.28,0,0,1-3.28-3.28h0a3.28,3.28,0,0,1,3.28-3.27h28.62a3.28,3.28,0,0,1,3.27,3.27h0A3.28,3.28,0,0,1,941.29,1440.71Z"/><path class="cls-1" d="M1031.45,1440.71H952.6a3.29,3.29,0,0,1-3.28-3.28h0a3.29,3.29,0,0,1,3.28-3.27h78.85a3.28,3.28,0,0,1,3.27,3.27h0A3.28,3.28,0,0,1,1031.45,1440.71Z"/><path class="cls-1" d="M1074,1466.88H912.67a3.28,3.28,0,0,1-3.28-3.28h0a3.28,3.28,0,0,1,3.28-3.27H1074a3.29,3.29,0,0,1,3.28,3.27h0A3.29,3.29,0,0,1,1074,1466.88Z"/><path class="cls-1" d="M971.24,1481H912.67a3.28,3.28,0,0,1-3.28-3.28h0a3.28,3.28,0,0,1,3.28-3.27h58.57a3.28,3.28,0,0,1,3.27,3.27h0A3.28,3.28,0,0,1,971.24,1481Z"/><path class="cls-1" d="M1042.5,1481H983.93a3.28,3.28,0,0,1-3.27-3.28h0a3.28,3.28,0,0,1,3.27-3.27h58.57a3.28,3.28,0,0,1,3.28,3.27h0A3.28,3.28,0,0,1,1042.5,1481Z"/></g></g></svg>