<?xml version="1.0" encoding="utf-8"?>
<!-- Generator: Adobe Illustrator 24.0.2, SVG Export Plug-In . SVG Version: 6.00 Build 0)  -->
<svg version="1.1" id="Layer_1" xmlns="http://www.w3.org/2000/svg" xmlns:xlink="http://www.w3.org/1999/xlink" x="0px" y="0px"
	 viewBox="0 0 642.5 570.7" style="enable-background:new 0 0 642.5 570.7;" xml:space="preserve">
<style type="text/css">
	.st0{fill:#0D7377;}
	.st1{fill:#14FFEC;}
	.st2{fill:#0F9B99;}
	.st3{fill:#13EAD5;}
	.st4{fill:url(#SVGID_1_);}
	.st5{fill:url(#SVGID_2_);}
	.st6{fill:url(#SVGID_3_);}
	.st7{fill:url(#SVGID_4_);}
	.st8{fill:url(#SVGID_5_);}
	.st9{fill:url(#SVGID_6_);}
	.st10{fill:url(#SVGID_7_);}
	.st11{fill:url(#SVGID_8_);}
	.st12{fill:url(#SVGID_9_);}
	.st13{fill:url(#SVGID_10_);}
	.st14{fill:url(#SVGID_11_);}
	.st15{fill:url(#SVGID_12_);}
	.st16{fill:url(#SVGID_13_);}
	.st17{fill:url(#SVGID_14_);}
</style>
<title>logosvg</title>
<g>
	<g id="Layer_2_1_">
		<g id="Layer_1-2">
			<path class="st0" d="M195.1,312.4c4.2,0,8.5,0,12.7,0c3.5,0,5.7,1.9,5.7,4.9c0.1,2.9-2.1,5-5.5,5.1c-8.7,0.1-17.4,0-26.1,0
				c-2.5,0-4.3-1.1-5.1-3.5c-0.7-2-0.1-3.9,1.5-5.1c1.2-0.8,2.7-1.2,4.1-1.2C186.6,312.3,190.8,312.4,195.1,312.4z"/>
			<path class="st0" d="M217.1,249.5c-4.1,0-8.1,0-12.2,0c-3.6,0-5.6-1.8-5.7-4.8c-0.1-3,2-5.1,5.5-5.1c8.3-0.1,16.6-0.1,24.8,0
				c3.4,0,5.6,2.3,5.5,5.1c-0.1,2.9-2.2,4.7-5.5,4.8C225.3,249.5,221.2,249.5,217.1,249.5z"/>
			<path class="st1" d="M243.1,350.2c-1.4-1.2-2.7-2.2-3.9-3.3c-2-1.7-2.3-4-0.8-5.7s3.7-1.8,5.7-0.2c2.4,2,4.9,4,7.2,6
				c2.2,1.9,2.2,4.4,0.1,6.3c-2.4,2.1-4.9,4.2-7.4,6.2c-1.9,1.5-4.3,1.3-5.6-0.4c-1.4-1.7-1.1-3.9,0.7-5.5
				C240.3,352.5,241.6,351.5,243.1,350.2z"/>
			<path class="st1" d="M188.4,350.2c1.4,1.2,2.7,2.2,3.9,3.3c1.9,1.7,2.2,3.9,0.8,5.6c-1.4,1.7-3.7,1.9-5.7,0.3
				c-2.5-2-5-4.1-7.4-6.2c-2.1-1.9-2.1-4.3,0-6.2c2.5-2.2,5-4.3,7.5-6.3c1.8-1.5,4.1-1.2,5.5,0.4c1.4,1.6,1.1,3.9-0.6,5.5
				C191.2,347.9,189.9,349,188.4,350.2z"/>
			<path class="st1" d="M236.3,207.6c-1.3-1.2-2.8-2.4-4.2-3.8c-2.5-2.5-2.6-5.3-0.6-7.5c2.1-2.1,5-2.1,7.5,0.4
				c2.5,2.4,5.1,5,7.6,7.6c2.5,2.6,2.6,5.2,0,7.9s-5.1,5.2-7.7,7.8c-2.4,2.3-5.3,2.3-7.3,0.2s-1.9-4.9,0.3-7.3
				c1.3-1.4,2.7-2.7,4-4.1C236.1,208.3,236.3,207.9,236.3,207.6z"/>
			<path class="st1" d="M187.8,208.7c1.4,1.2,3,2.5,4.4,4c2.3,2.3,2.4,5.3,0.4,7.3c-2.1,2.1-5,2-7.5-0.4c-2.6-2.5-5.1-5-7.6-7.6
				c-2.5-2.6-2.5-5.3,0-7.9s5-5.1,7.6-7.6c2.5-2.4,5.4-2.5,7.5-0.4c2,2.1,1.8,5.1-0.6,7.5c-1.3,1.3-2.5,2.6-3.8,3.9
				C188,208,187.9,208.3,187.8,208.7z"/>
			<path class="st1" d="M217.9,281.1c0,2.9,0.1,5.8,0,8.7c-0.1,3.3-2.1,5.4-4.9,5.4c-2.9,0-4.9-2.1-5-5.4c-0.1-5.9-0.1-11.8,0-17.7
				c0.1-3.3,2.1-5.4,5-5.4c2.9,0,4.9,2,4.9,5.4C218,275.1,217.9,278.1,217.9,281.1z"/>
			<path class="st1" d="M255.4,280.9c0-3-0.1-6,0-9c0.1-3.2,2-5.1,4.8-5.2c2.8,0,5,1.9,5,5c0.1,6.1,0.1,12.3,0,18.4
				c-0.1,3.1-2.3,5.1-5.1,5c-2.7-0.1-4.6-2.1-4.8-5.1V280.9L255.4,280.9z"/>
			<path class="st1" d="M212.4,350.3c0,2.1,0,4.2,0,6.3c-0.1,2.2-1.5,3.7-3.5,3.8c-2.1,0.1-4-1.2-4.1-3.5c-0.2-4.5-0.2-9.1,0-13.6
				c0.1-2.2,1.9-3.6,4-3.5c2.1,0.1,3.5,1.6,3.6,3.9C212.4,346,212.4,348.2,212.4,350.3z"/>
			<path class="st1" d="M226.6,350.2c0,2.1,0,4.2,0,6.3c-0.1,2.3-1.5,3.8-3.6,3.9c-2,0.2-3.8-1.4-4-3.4c0-0.1,0-0.2,0-0.3
				c-0.1-4.4-0.1-8.7,0-13.1c0-2.4,1.8-3.9,3.9-3.8c2.2,0.1,3.7,1.6,3.7,4C226.7,346,226.6,348.1,226.6,350.2z"/>
			<path class="st1" d="M216,197.5c4.4-0.1,7.2,3.8,5.3,6.9c-3,4.9-6.5,9.4-10,13.9c-1.5,1.9-4.4,1.9-6.3,0.5
				c-1.9-1.4-2.8-4.2-1.4-6.2c3.1-4.7,6.5-9.2,9.9-13.7C214.1,198,215.6,197.8,216,197.5z"/>
			<path class="st0" d="M262.1,313.1c2,0,4-0.1,6,0c2.9,0.1,4.9,2.1,4.9,4.9c0.1,2.7-1.9,4.9-4.6,5c0,0,0,0,0,0h-0.2
				c-4.1,0.1-8.3,0.1-12.4,0c-2.7-0.1-4.7-2.3-4.7-4.9c0-0.1,0-0.1,0-0.2c0.1-2.6,2.2-4.7,4.8-4.8C257.9,313,260,313.1,262.1,313.1z
				"/>
			<path class="st0" d="M232.5,313.1c2,0,4-0.1,6,0c2.9,0.1,4.9,2.2,5,4.9c0.1,2.7-2.1,5-4.8,5h0c-4.1,0.1-8.1,0.1-12.2,0
				c-3-0.1-5.1-2.3-5-5.1c0.1-2.7,2.1-4.7,5-4.8C228.5,313,230.5,313.1,232.5,313.1z"/>
			<path class="st1" d="M192.3,280.7c0-1.5-0.1-3,0-4.5c0.2-2.7,2-4.5,4.5-4.7c2.5-0.2,4.9,1.4,5.1,4c0.3,3.6,0.3,7.3,0,10.9
				c-0.2,2.6-2.6,4.1-5.3,3.8c-2.4-0.2-4.3-2.2-4.4-4.6C192.2,284,192.3,282.4,192.3,280.7z"/>
			<path class="st1" d="M281,281c0,1.2,0.1,2.3,0,3.5c-0.1,2.4-2,4.4-4.4,4.6c-2.3,0.3-4.9-1.2-5.2-3.6c-0.4-3-0.4-6.1,0-9.1
				c0.3-2.3,2.7-3.7,5-3.6c2.4,0.1,4.4,2,4.5,4.4C281.1,278.5,281,279.7,281,281L281,281z"/>
			<path class="st0" d="M184.6,166.8c1.2,0,2.3-0.1,3.5,0c2.6,0.2,4.6,2.4,4.6,5c0,2.5-1.9,4.6-4.5,4.9c-2.5,0.2-5,0.2-7.5,0
				c-2.5-0.3-4.4-2.4-4.4-4.9c0-2.6,2.1-4.7,4.7-4.9C182.3,166.7,183.5,166.8,184.6,166.8z"/>
			<path class="st1" d="M233.7,281.1c0,1.1,0.1,2.2,0,3.2c-0.1,2.5-2.1,4.5-4.6,4.7c-2.4,0.2-4.9-1.5-5.1-4c-0.3-2.7-0.3-5.4,0-8.1
				c0.3-2.5,2.8-4.2,5.2-4c2.5,0.2,4.4,2.3,4.5,4.8C233.7,278.8,233.7,279.9,233.7,281.1z"/>
			<path class="st0" d="M183.3,249.5c-4.5,0-6.8-1.7-6.8-5s2.5-5,6.9-5h1.2c3.4,0.1,5.7,2.1,5.7,4.9c0.1,3-2.2,4.9-5.8,5
				C184.1,249.5,183.7,249.5,183.3,249.5z"/>
			<path class="st1" d="M186.4,281c0,2.7-2.2,5-5,4.9c-2.7,0-5-2.2-4.9-5c0-2.8,2.2-5.1,5-5.1C184.2,275.9,186.4,278.2,186.4,281
				C186.4,281,186.4,281,186.4,281L186.4,281z"/>
			<path class="st0" d="M181.3,385.2c2.8-0.1,5.1,2.1,5.2,4.9c0.1,2.8-2.1,5.1-4.9,5.2c-2.8,0.1-5.1-2.1-5.2-4.9c0-0.1,0-0.2,0-0.3
				C176.5,387.4,178.6,385.3,181.3,385.2z"/>
			<path class="st1" d="M244.6,285.8c-2.7,0.1-4.9-2-5-4.6V281c-0.1-2.7,2.1-5,4.8-5c0,0,0,0,0,0h0.2c2.7,0.1,4.9,2.3,4.9,5
				C249.5,283.7,247.3,285.8,244.6,285.8z"/>
			<path class="st1" d="M291.9,285.8c-2.7,0.1-4.9-2.1-5-4.8c0,0,0,0,0,0c0-0.1,0-0.2,0-0.2c0.1-2.7,2.3-4.9,5.1-4.8
				c2.7,0.1,4.9,2.3,4.8,5.1l0,0C296.8,283.7,294.6,285.9,291.9,285.8z"/>
			<polyline class="st2" points="108.6,400.2 122.4,360.6 115.2,356.7 90.2,387.7 			"/>
			<polyline class="st0" points="67.6,348.8 88,328.3 84.2,323.5 58.5,335 			"/>
			<path class="st0" d="M53.4,330.8c1.4-1,6.6,3.2,11.6,9.4c1.7,2.1,3.3,4.4,4.7,6.8c1.8,3.2,2.5,5.6,1.7,6.2
				c-1.4,1-6.6-3.2-11.6-9.4C54.8,337.6,51.9,331.8,53.4,330.8z"/>
			<polyline class="st0" points="36.3,293.9 85.9,271.3 83.7,259.5 33.1,261.3 			"/>
			<path class="st0" d="M28.2,249.3c3.1-0.8,8,11,10.9,26.3c1,5.4,1.7,10.8,2,16.3c0.3,7.4-0.5,12.4-2.4,12.9
				c-3.1,0.8-8-11-10.9-26.3C24.9,263.2,25.1,250.1,28.2,249.3z"/>
			<polyline class="st0" points="58.4,228 86.6,234.4 88.7,228.6 65.2,213.1 			"/>
			<path class="st0" d="M66.1,206.4c1.6,0.7,0.8,7.3-1.8,14.8c-0.9,2.6-2,5.2-3.2,7.6c-1.7,3.3-3.4,5.2-4.4,4.7
				c-1.6-0.7-0.8-7.3,1.8-14.8C61,211.3,64.5,205.7,66.1,206.4z"/>
			<polyline class="st0" points="76,181 102.4,213.5 109.5,209.4 96.3,171.8 			"/>
			<path class="st0" d="M102.9,165.7c1.3,2.2-5.2,8.3-14.4,13.6c-3.2,1.9-6.6,3.5-10.1,4.9c-4.7,1.8-8.2,2.2-9,0.8
				c-1.3-2.2,5.2-8.3,14.4-13.6C93.1,166.1,101.6,163.5,102.9,165.7z"/>
			<path class="st2" d="M80.3,386.6c1.2-2.2,9.8,0.1,19.2,5.1c3.3,1.8,6.4,3.8,9.4,6c4,3.1,6.2,5.8,5.4,7.2
				c-1.2,2.2-9.8-0.1-19.2-5.1C85.8,394.7,79.1,388.8,80.3,386.6z"/>
			<polyline class="st3" points="157.2,396.4 158.1,371.4 153.5,370.8 144.9,393.5 			"/>
			<path class="st3" d="M139.7,394c0.3-1.5,5.4-2.1,11.5-1.3c2.1,0.3,4.2,0.7,6.2,1.3c2.7,0.8,4.4,1.9,4.2,2.8
				c-0.3,1.5-5.4,2.1-11.5,1.3C144.1,397.3,139.4,395.5,139.7,394z"/>
			<polyline class="st3" points="130.8,174.7 136.8,195.3 141.3,194.5 143,173.8 			"/>
			<path class="st3" d="M147.7,172c0.1,1.3-4.4,3.1-10.3,4.1c-2,0.4-4.1,0.6-6.1,0.6c-2.7,0-4.6-0.4-4.7-1.2
				c-0.1-1.3,4.5-3.1,10.3-4.1C142.7,170.4,147.5,170.7,147.7,172z"/>
			
				<linearGradient id="SVGID_1_" gradientUnits="userSpaceOnUse" x1="279.9773" y1="430.6687" x2="380.6466" y2="430.6687" gradientTransform="matrix(1 0 0 1 -211.32 -149.34)">
				<stop  offset="0" style="stop-color:#0D7377"/>
				<stop  offset="0.13" style="stop-color:#0D7C7F"/>
				<stop  offset="0.35" style="stop-color:#0F9694"/>
				<stop  offset="0.63" style="stop-color:#11BFB6"/>
				<stop  offset="0.96" style="stop-color:#14F7E5"/>
				<stop  offset="1" style="stop-color:#14FFEC"/>
			</linearGradient>
			<path class="st4" d="M169.3,184.3c-1.2,0-2.4-0.1-3.6-0.1c-53.6,0-97.1,43.5-97.1,97.1s43.5,97.1,97.1,97.1c1.2,0,2.4,0,3.6-0.1
				V184.3z"/>
			<path class="st0" d="M252.2,239.7c-2.5,0-5-0.1-7.4,0c-3,0.1-5.1,2.2-5.1,4.9c0,2.7,2.1,4.9,5.1,5c5.1,0.1,10.3,0.1,15.4,0
				c3.1,0,5.3-2.3,5.3-5.1c-0.1-2.7-2.2-4.8-5.2-4.8C257.5,239.7,254.8,239.7,252.2,239.7z"/>
			<path class="st0" d="M282,239.7c-1.2,0-2.3-0.1-3.5,0c-2.6,0.2-4.6,2.4-4.6,5c0,2.5,1.9,4.6,4.5,4.9c2.5,0.2,5,0.2,7.5,0
				c2.5-0.3,4.4-2.4,4.4-4.9c0-2.6-2.1-4.7-4.7-4.9C284.4,239.7,283.2,239.7,282,239.7z"/>
			<path class="st0" d="M205.1,385c2,0,4-0.1,6,0c2.9,0.1,4.9,2.2,5,4.9c0.1,2.7-2.1,5-4.8,5h0c-4.1,0.1-8.1,0.1-12.2,0
				c-3-0.1-5.1-2.3-5-5.1c0.1-2.7,2.1-4.7,5-4.8C201.1,385,203.1,385,205.1,385z"/>
			<path class="st0" d="M211.1,167.4c2,0,4-0.1,6,0c2.9,0.1,4.9,2.2,5,4.9c0.1,2.7-2.1,5-4.8,5h0c-4.1,0.1-8.1,0.1-12.2,0
				c-3-0.1-5.1-2.3-5-5.1c0.1-2.7,2.1-4.7,5-4.8C207.1,167.3,209.1,167.4,211.1,167.4z"/>
			<path class="st0" d="M227.8,385c2.7-0.1,5,2,5.1,4.7c0,0,0,0,0,0c0,0.1,0,0.2,0,0.3c0,2.7-2.2,5-5,5c-2.7,0-5-2.2-5-5
				C222.9,387.2,225.1,385,227.8,385z"/>
			<path class="st0" d="M234.9,167.4c2.7-0.1,5,2,5.1,4.7c0,0,0,0,0,0c0,0.1,0,0.2,0,0.3c0,2.7-2.2,5-5,4.9c-2.7,0-5-2.2-4.9-5
				C230,169.6,232.2,167.4,234.9,167.4z"/>
		</g>
	</g>
	<g>
		<linearGradient id="SVGID_2_" gradientUnits="userSpaceOnUse" x1="220.1755" y1="113.0934" x2="460.1755" y2="427.0934">
			<stop  offset="0" style="stop-color:#0D7377"/>
			<stop  offset="0.13" style="stop-color:#0D7C7F"/>
			<stop  offset="0.35" style="stop-color:#0F9694"/>
			<stop  offset="0.63" style="stop-color:#11BFB6"/>
			<stop  offset="0.96" style="stop-color:#14F7E5"/>
			<stop  offset="1" style="stop-color:#14FFEC"/>
		</linearGradient>
		<path class="st5" d="M274,167.8v23.4h22.7v-23.4h13.8v61h-13.8v-25.5H274v25.5h-13.8v-61H274z"/>
		<linearGradient id="SVGID_3_" gradientUnits="userSpaceOnUse" x1="252.4415" y1="88.4316" x2="492.4415" y2="402.4315">
			<stop  offset="0" style="stop-color:#0D7377"/>
			<stop  offset="0.13" style="stop-color:#0D7C7F"/>
			<stop  offset="0.35" style="stop-color:#0F9694"/>
			<stop  offset="0.63" style="stop-color:#11BFB6"/>
			<stop  offset="0.96" style="stop-color:#14F7E5"/>
			<stop  offset="1" style="stop-color:#14FFEC"/>
		</linearGradient>
		<path class="st6" d="M336.6,213.1l-4.3,15.7H318l18.6-61h18.1l18.9,61h-14.8l-4.7-15.7H336.6z M352.1,202.8l-3.8-12.9
			c-1.1-3.6-2.2-8.1-3.1-11.8h-0.2c-0.9,3.6-1.8,8.2-2.8,11.8l-3.6,12.9H352.1z"/>
		<linearGradient id="SVGID_4_" gradientUnits="userSpaceOnUse" x1="297.0984" y1="54.2988" x2="537.0984" y2="368.2988">
			<stop  offset="0" style="stop-color:#0D7377"/>
			<stop  offset="0.13" style="stop-color:#0D7C7F"/>
			<stop  offset="0.35" style="stop-color:#0F9694"/>
			<stop  offset="0.63" style="stop-color:#11BFB6"/>
			<stop  offset="0.96" style="stop-color:#14F7E5"/>
			<stop  offset="1" style="stop-color:#14FFEC"/>
		</linearGradient>
		<path class="st7" d="M424.3,227c-2.5,1.3-8.2,2.6-15.7,2.6c-21.1,0-31.9-13.1-31.9-30.5c0-20.8,14.8-32.4,33.3-32.4
			c7.1,0,12.6,1.4,15,2.7l-2.8,10.9c-2.8-1.2-6.7-2.3-11.6-2.3c-10.9,0-19.5,6.6-19.5,20.2c0,12.2,7.2,19.9,19.5,19.9
			c4.2,0,8.8-0.9,11.5-2L424.3,227z"/>
		<linearGradient id="SVGID_5_" gradientUnits="userSpaceOnUse" x1="329.0786" y1="29.8554" x2="569.0786" y2="343.8554">
			<stop  offset="0" style="stop-color:#0D7377"/>
			<stop  offset="0.13" style="stop-color:#0D7C7F"/>
			<stop  offset="0.35" style="stop-color:#0F9694"/>
			<stop  offset="0.63" style="stop-color:#11BFB6"/>
			<stop  offset="0.96" style="stop-color:#14F7E5"/>
			<stop  offset="1" style="stop-color:#14FFEC"/>
		</linearGradient>
		<path class="st8" d="M433.4,167.8H447v27h0.3c1.4-2.4,2.8-4.5,4.2-6.7l13.8-20.3h16.9l-20.2,26l21.3,35h-16.1l-14.9-26.3l-5.2,6.4
			v19.9h-13.7V167.8z"/>
	</g>
	<g>
		<linearGradient id="SVGID_6_" gradientUnits="userSpaceOnUse" x1="211.8247" y1="119.4762" x2="451.8247" y2="433.4762">
			<stop  offset="0" style="stop-color:#0D7377"/>
			<stop  offset="0.13" style="stop-color:#0D7C7F"/>
			<stop  offset="0.35" style="stop-color:#0F9694"/>
			<stop  offset="0.63" style="stop-color:#11BFB6"/>
			<stop  offset="0.96" style="stop-color:#14F7E5"/>
			<stop  offset="1" style="stop-color:#14FFEC"/>
		</linearGradient>
		<path class="st9" d="M323.5,266.7H305v-13h52.8v13h-18.8v55.7h-15.6V266.7z"/>
		<linearGradient id="SVGID_7_" gradientUnits="userSpaceOnUse" x1="245.772" y1="93.5292" x2="485.772" y2="407.5292">
			<stop  offset="0" style="stop-color:#0D7377"/>
			<stop  offset="0.13" style="stop-color:#0D7C7F"/>
			<stop  offset="0.35" style="stop-color:#0F9694"/>
			<stop  offset="0.63" style="stop-color:#11BFB6"/>
			<stop  offset="0.96" style="stop-color:#14F7E5"/>
			<stop  offset="1" style="stop-color:#14FFEC"/>
		</linearGradient>
		<path class="st10" d="M381.7,253.6V280h25.6v-26.4h15.5v68.7h-15.5v-28.7h-25.6v28.7h-15.6v-68.7H381.7z"/>
		<linearGradient id="SVGID_8_" gradientUnits="userSpaceOnUse" x1="285.6077" y1="63.0816" x2="525.6077" y2="377.0816">
			<stop  offset="0" style="stop-color:#0D7377"/>
			<stop  offset="0.13" style="stop-color:#0D7C7F"/>
			<stop  offset="0.35" style="stop-color:#0F9694"/>
			<stop  offset="0.63" style="stop-color:#11BFB6"/>
			<stop  offset="0.96" style="stop-color:#14F7E5"/>
			<stop  offset="1" style="stop-color:#14FFEC"/>
		</linearGradient>
		<path class="st11" d="M477.2,293.3h-25.3v16.3h28.2v12.7h-43.8v-68.7h42.4v12.7h-26.8v14.3h25.3V293.3z"/>
	</g>
	<g>
		<linearGradient id="SVGID_9_" gradientUnits="userSpaceOnUse" x1="130.81" y1="181.3983" x2="370.81" y2="495.3983">
			<stop  offset="0" style="stop-color:#0D7377"/>
			<stop  offset="0.13" style="stop-color:#0D7C7F"/>
			<stop  offset="0.35" style="stop-color:#0F9694"/>
			<stop  offset="0.63" style="stop-color:#11BFB6"/>
			<stop  offset="0.96" style="stop-color:#14F7E5"/>
			<stop  offset="1" style="stop-color:#14FFEC"/>
		</linearGradient>
		<path class="st12" d="M294.7,401.5c-2.3,1.2-7.5,2.4-14.3,2.4c-19.3,0-29.2-12-29.2-27.9c0-19.1,13.6-29.7,30.5-29.7
			c6.5,0,11.5,1.3,13.8,2.5l-2.6,10c-2.6-1.1-6.1-2.1-10.6-2.1c-10,0-17.8,6-17.8,18.5c0,11.2,6.6,18.2,17.9,18.2
			c3.8,0,8-0.8,10.5-1.8L294.7,401.5z"/>
		<linearGradient id="SVGID_10_" gradientUnits="userSpaceOnUse" x1="156.1813" y1="162.0062" x2="396.1813" y2="476.0062">
			<stop  offset="0" style="stop-color:#0D7377"/>
			<stop  offset="0.13" style="stop-color:#0D7C7F"/>
			<stop  offset="0.35" style="stop-color:#0F9694"/>
			<stop  offset="0.63" style="stop-color:#11BFB6"/>
			<stop  offset="0.96" style="stop-color:#14F7E5"/>
			<stop  offset="1" style="stop-color:#14FFEC"/>
		</linearGradient>
		<path class="st13" d="M302.9,348c4.1-0.7,10.1-1.2,16.8-1.2c8.3,0,14.1,1.2,18.1,4.4c3.3,2.7,5.1,6.5,5.1,11.7
			c0,7.1-5.1,12-9.9,13.8v0.2c3.9,1.6,6,5.3,7.5,10.4c1.7,6.3,3.5,13.6,4.6,15.7h-12.9c-0.9-1.6-2.2-6.1-3.9-13
			c-1.5-7-3.9-8.9-9-8.9h-3.8v22h-12.5V348z M315.5,372h5c6.3,0,10-3.1,10-8c0-5.1-3.5-7.7-9.3-7.8c-3.1,0-4.8,0.2-5.7,0.4V372z"/>
		<linearGradient id="SVGID_11_" gradientUnits="userSpaceOnUse" x1="180.9833" y1="143.0493" x2="420.9833" y2="457.0493">
			<stop  offset="0" style="stop-color:#0D7377"/>
			<stop  offset="0.13" style="stop-color:#0D7C7F"/>
			<stop  offset="0.35" style="stop-color:#0F9694"/>
			<stop  offset="0.63" style="stop-color:#11BFB6"/>
			<stop  offset="0.96" style="stop-color:#14F7E5"/>
			<stop  offset="1" style="stop-color:#14FFEC"/>
		</linearGradient>
		<path class="st14" d="M364.7,347.3v55.8h-12.7v-55.8H364.7z"/>
		<linearGradient id="SVGID_12_" gradientUnits="userSpaceOnUse" x1="202.0851" y1="126.9205" x2="442.0851" y2="440.9205">
			<stop  offset="0" style="stop-color:#0D7377"/>
			<stop  offset="0.13" style="stop-color:#0D7C7F"/>
			<stop  offset="0.35" style="stop-color:#0F9694"/>
			<stop  offset="0.63" style="stop-color:#11BFB6"/>
			<stop  offset="0.96" style="stop-color:#14F7E5"/>
			<stop  offset="1" style="stop-color:#14FFEC"/>
		</linearGradient>
		<path class="st15" d="M376.1,390.1c3.4,1.7,8.6,3.5,14,3.5c5.8,0,8.9-2.4,8.9-6c0-3.5-2.7-5.5-9.4-7.9
			c-9.3-3.2-15.3-8.4-15.3-16.5c0-9.5,8-16.8,21.1-16.8c6.3,0,10.9,1.3,14.2,2.8l-2.8,10.2c-2.2-1.1-6.2-2.7-11.7-2.7
			c-5.5,0-8.1,2.5-8.1,5.4c0,3.6,3.1,5.1,10.4,7.9c9.9,3.6,14.5,8.8,14.5,16.7c0,9.4-7.2,17.3-22.5,17.3c-6.4,0-12.7-1.7-15.8-3.4
			L376.1,390.1z"/>
		<linearGradient id="SVGID_13_" gradientUnits="userSpaceOnUse" x1="224.123" y1="110.0762" x2="464.123" y2="424.0762">
			<stop  offset="0" style="stop-color:#0D7377"/>
			<stop  offset="0.13" style="stop-color:#0D7C7F"/>
			<stop  offset="0.35" style="stop-color:#0F9694"/>
			<stop  offset="0.63" style="stop-color:#11BFB6"/>
			<stop  offset="0.96" style="stop-color:#14F7E5"/>
			<stop  offset="1" style="stop-color:#14FFEC"/>
		</linearGradient>
		<path class="st16" d="M433.1,347.3v55.8h-12.7v-55.8H433.1z"/>
		<linearGradient id="SVGID_14_" gradientUnits="userSpaceOnUse" x1="245.2248" y1="93.9475" x2="485.2248" y2="407.9475">
			<stop  offset="0" style="stop-color:#0D7377"/>
			<stop  offset="0.13" style="stop-color:#0D7C7F"/>
			<stop  offset="0.35" style="stop-color:#0F9694"/>
			<stop  offset="0.63" style="stop-color:#11BFB6"/>
			<stop  offset="0.96" style="stop-color:#14F7E5"/>
			<stop  offset="1" style="stop-color:#14FFEC"/>
		</linearGradient>
		<path class="st17" d="M444.4,390.1c3.4,1.7,8.6,3.5,14,3.5c5.8,0,8.9-2.4,8.9-6c0-3.5-2.7-5.5-9.4-7.9
			c-9.3-3.2-15.3-8.4-15.3-16.5c0-9.5,8-16.8,21.1-16.8c6.3,0,10.9,1.3,14.2,2.8l-2.8,10.2c-2.2-1.1-6.2-2.7-11.7-2.7
			c-5.5,0-8.1,2.5-8.1,5.4c0,3.6,3.1,5.1,10.4,7.9c9.9,3.6,14.5,8.8,14.5,16.7c0,9.4-7.2,17.3-22.5,17.3c-6.4,0-12.7-1.7-15.8-3.4
			L444.4,390.1z"/>
	</g>
</g>
</svg>
