<svg xmlns="http://www.w3.org/2000/svg" xmlns:xlink="http://www.w3.org/1999/xlink" viewBox="0 0 271.06 240.82"><defs><style>.cls-1{fill:#0d7377;}.cls-2{fill:#14ffec;}.cls-3{fill:#0f9b99;}.cls-4{fill:#13ead5;}.cls-5{fill:url(#linear-gradient);}</style><linearGradient id="linear-gradient" x1="254.18" y1="-25.67" x2="354.88" y2="-25.67" gradientTransform="matrix(1, 0, 0, -1, -211.32, 90.72)" gradientUnits="userSpaceOnUse"><stop offset="0" stop-color="#0d7377"/><stop offset="0.13" stop-color="#0d7c7f"/><stop offset="0.35" stop-color="#0f9694"/><stop offset="0.63" stop-color="#11bfb6"/><stop offset="0.96" stop-color="#14f7e5"/><stop offset="1" stop-color="#14ffec"/></linearGradient></defs><title>logosvg</title><g id="Layer_2" data-name="Layer 2"><g id="Layer_1-2" data-name="Layer 1"><g id="Layer_2-2" data-name="Layer 2"><g id="Layer_1-2-2" data-name="Layer 1-2"><path class="cls-1" d="M169.36,147.48h12.7c3.5,0,5.7,1.9,5.7,4.9s-2.1,5-5.5,5.1c-8.7.1-17.4,0-26.1,0a4.89,4.89,0,0,1-5.1-3.5,4.33,4.33,0,0,1,1.5-5.1,7.54,7.54,0,0,1,4.1-1.2C160.86,147.38,165.06,147.48,169.36,147.48Z"/><path class="cls-1" d="M191.36,84.58h-12.2c-3.6,0-5.6-1.8-5.7-4.8s2-5.1,5.5-5.1c8.3-.1,16.6-.1,24.8,0,3.4,0,5.6,2.3,5.5,5.1s-2.2,4.7-5.5,4.8Z"/><path class="cls-2" d="M217.36,185.28c-1.4-1.2-2.7-2.2-3.9-3.3-2-1.7-2.3-4-.8-5.7s3.7-1.8,5.7-.2c2.4,2,4.9,4,7.2,6s2.2,4.4.1,6.3c-2.4,2.1-4.9,4.2-7.4,6.2a3.85,3.85,0,0,1-5.6-.4c-1.4-1.7-1.1-3.9.7-5.5C214.56,187.58,215.86,186.58,217.36,185.28Z"/><path class="cls-2" d="M162.66,185.28c1.4,1.2,2.7,2.2,3.9,3.3,1.9,1.7,2.2,3.9.8,5.6s-3.7,1.9-5.7.3c-2.5-2-5-4.1-7.4-6.2-2.1-1.9-2.1-4.3,0-6.2q3.75-3.3,7.5-6.3a3.83,3.83,0,0,1,5.5.4c1.4,1.6,1.1,3.9-.6,5.5A35.14,35.14,0,0,1,162.66,185.28Z"/><path class="cls-2" d="M210.56,42.68c-1.3-1.2-2.8-2.4-4.2-3.8-2.5-2.5-2.6-5.3-.6-7.5s5-2.1,7.5.4,5.1,5,7.6,7.6,2.6,5.2,0,7.9-5.1,5.2-7.7,7.8c-2.4,2.3-5.3,2.3-7.3.2s-1.9-4.9.3-7.3c1.3-1.4,2.7-2.7,4-4.1A4.15,4.15,0,0,0,210.56,42.68Z"/><path class="cls-2" d="M162.06,43.78a53.1,53.1,0,0,1,4.4,4c2.3,2.3,2.4,5.3.4,7.3s-5,2-7.5-.4-5.1-5-7.6-7.6-2.5-5.3,0-7.9,5-5.1,7.6-7.6,5.4-2.5,7.5-.4,1.8,5.1-.6,7.5c-1.3,1.3-2.5,2.6-3.8,3.9A8.4,8.4,0,0,0,162.06,43.78Z"/><path class="cls-2" d="M192.16,116.18c0,2.9.1,5.8,0,8.7-.1,3.3-2.1,5.4-4.9,5.4s-4.9-2.1-5-5.4q-.15-8.85,0-17.7c.1-3.3,2.1-5.4,5-5.4s4.9,2,4.9,5.4C192.26,110.18,192.16,113.18,192.16,116.18Z"/><path class="cls-2" d="M229.66,116c0-3-.1-6,0-9,.1-3.2,2-5.1,4.8-5.2a4.78,4.78,0,0,1,5,5c.1,6.1.1,12.3,0,18.4a4.85,4.85,0,0,1-5.1,5c-2.7-.1-4.6-2.1-4.8-5.1V116Z"/><path class="cls-2" d="M186.66,185.38v6.3a3.81,3.81,0,0,1-7.6.3c-.2-4.5-.2-9.1,0-13.6a3.66,3.66,0,0,1,4-3.5,3.72,3.72,0,0,1,3.6,3.9Z"/><path class="cls-2" d="M200.86,185.28v6.3a3.72,3.72,0,0,1-3.6,3.9,3.77,3.77,0,0,1-4-3.4v-.3c-.1-4.4-.1-8.7,0-13.1a3.64,3.64,0,0,1,3.9-3.8,3.71,3.71,0,0,1,3.7,4C201,181.08,200.86,183.18,200.86,185.28Z"/><path class="cls-2" d="M190.26,32.58c4.4-.1,7.2,3.8,5.3,6.9a153,153,0,0,1-10,13.9c-1.5,1.9-4.4,1.9-6.3.5s-2.8-4.2-1.4-6.2c3.1-4.7,6.5-9.2,9.9-13.7C188.36,33.08,189.86,32.88,190.26,32.58Z"/><path class="cls-1" d="M236.36,148.18c2,0,4-.1,6,0a5,5,0,0,1,.3,9.9h-.2c-4.1.1-8.3.1-12.4,0a4.87,4.87,0,0,1-4.7-4.9V153a5,5,0,0,1,4.8-4.8C232.16,148.08,234.26,148.18,236.36,148.18Z"/><path class="cls-1" d="M206.76,148.18c2,0,4-.1,6,0a5,5,0,0,1,5,4.9,4.85,4.85,0,0,1-4.8,5h0c-4.1.1-8.1.1-12.2,0a5,5,0,1,1,0-9.9C202.76,148.08,204.76,148.18,206.76,148.18Z"/><path class="cls-2" d="M166.56,115.78c0-1.5-.1-3,0-4.5a4.8,4.8,0,0,1,4.5-4.7,4.54,4.54,0,0,1,5.1,4,66.12,66.12,0,0,1,0,10.9c-.2,2.6-2.6,4.1-5.3,3.8a4.84,4.84,0,0,1-4.4-4.6C166.46,119.08,166.56,117.48,166.56,115.78Z"/><path class="cls-2" d="M255.26,116.08c0,1.2.1,2.3,0,3.5a4.84,4.84,0,0,1-4.4,4.6c-2.3.3-4.9-1.2-5.2-3.6a34.65,34.65,0,0,1,0-9.1c.3-2.3,2.7-3.7,5-3.6a4.67,4.67,0,0,1,4.5,4.4,24.13,24.13,0,0,1,.1,3.8Z"/><path class="cls-1" d="M158.86,1.88c1.2,0,2.3-.1,3.5,0a5,5,0,0,1,.1,9.9,47,47,0,0,1-7.5,0,5,5,0,0,1-4.4-4.9,5,5,0,0,1,4.7-4.9A22.24,22.24,0,0,1,158.86,1.88Z"/><path class="cls-2" d="M208,116.18c0,1.1.1,2.2,0,3.2a5,5,0,0,1-4.6,4.7,4.67,4.67,0,0,1-5.1-4,36.56,36.56,0,0,1,0-8.1,4.84,4.84,0,0,1,5.2-4,5,5,0,0,1,4.5,4.8Z"/><path class="cls-1" d="M157.56,84.58c-4.5,0-6.8-1.7-6.8-5s2.5-5,6.9-5h1.2c3.4.1,5.7,2.1,5.7,4.9.1,3-2.2,4.9-5.8,5A4.87,4.87,0,0,1,157.56,84.58Z"/><path class="cls-2" d="M160.66,116.08a5,5,0,0,1-9.9-.1,5,5,0,0,1,5-5.1,5.17,5.17,0,0,1,4.9,5.2Z"/><path class="cls-1" d="M155.56,220.28a5.05,5.05,0,1,1-4.9,5.2v-.3A5,5,0,0,1,155.56,220.28Z"/><path class="cls-2" d="M218.86,120.88a4.81,4.81,0,0,1-5-4.6v-.2a4.85,4.85,0,0,1,4.8-5h.2a5.06,5.06,0,0,1,4.9,5A4.82,4.82,0,0,1,218.86,120.88Z"/><path class="cls-2" d="M266.16,120.88a4.91,4.91,0,0,1-5-4.8h0v-.2a5,5,0,0,1,9.9.3h0A4.74,4.74,0,0,1,266.16,120.88Z"/><polyline class="cls-3" points="82.86 235.28 96.66 195.68 89.46 191.78 64.46 222.78"/><polyline class="cls-1" points="41.86 183.88 62.26 163.38 58.46 158.58 32.76 170.08"/><path class="cls-1" d="M27.66,165.88c1.4-1,6.6,3.2,11.6,9.4a54.65,54.65,0,0,1,4.7,6.8c1.8,3.2,2.5,5.6,1.7,6.2-1.4,1-6.6-3.2-11.6-9.4S26.16,166.88,27.66,165.88Z"/><polyline class="cls-1" points="10.56 128.98 60.16 106.38 57.96 94.58 7.36 96.38"/><path class="cls-1" d="M2.46,84.38c3.1-.8,8,11,10.9,26.3a127.29,127.29,0,0,1,2,16.3c.3,7.4-.5,12.4-2.4,12.9-3.1.8-8-11-10.9-26.3S-.64,85.18,2.46,84.38Z"/><polyline class="cls-1" points="32.66 63.08 60.86 69.48 62.96 63.68 39.46 48.18"/><path class="cls-1" d="M40.36,41.48c1.6.7.8,7.3-1.8,14.8a64.08,64.08,0,0,1-3.2,7.6c-1.7,3.3-3.4,5.2-4.4,4.7-1.6-.7-.8-7.3,1.8-14.8S38.76,40.78,40.36,41.48Z"/><polyline class="cls-1" points="50.26 16.08 76.66 48.58 83.76 44.48 70.56 6.88"/><path class="cls-1" d="M77.16.78c1.3,2.2-5.2,8.3-14.4,13.6a72.43,72.43,0,0,1-10.1,4.9c-4.7,1.8-8.2,2.2-9,.8-1.3-2.2,5.2-8.3,14.4-13.6S75.86-1.42,77.16.78Z"/><path class="cls-3" d="M54.56,221.68c1.2-2.2,9.8.1,19.2,5.1a83.24,83.24,0,0,1,9.4,6c4,3.1,6.2,5.8,5.4,7.2-1.2,2.2-9.8-.1-19.2-5.1S53.36,223.88,54.56,221.68Z"/><polyline class="cls-4" points="131.46 231.48 132.36 206.48 127.76 205.88 119.16 228.58"/><path class="cls-4" d="M114,229.08c.3-1.5,5.4-2.1,11.5-1.3a42.64,42.64,0,0,1,6.2,1.3c2.7.8,4.4,1.9,4.2,2.8-.3,1.5-5.4,2.1-11.5,1.3S113.66,230.58,114,229.08Z"/><polyline class="cls-4" points="105.06 9.78 111.06 30.38 115.56 29.58 117.26 8.88"/><path class="cls-4" d="M122,7.08c.1,1.3-4.4,3.1-10.3,4.1a31.53,31.53,0,0,1-6.1.6c-2.7,0-4.6-.4-4.7-1.2-.1-1.3,4.5-3.1,10.3-4.1S121.76,5.78,122,7.08Z"/><path class="cls-5" d="M143.56,19.38c-1.2,0-2.4-.1-3.6-.1a97.1,97.1,0,0,0,0,194.2c1.2,0,2.4,0,3.6-.1Z"/><path class="cls-1" d="M226.46,74.78c-2.5,0-5-.1-7.4,0a5,5,0,0,0-5.1,4.9,5,5,0,0,0,5.1,5c5.1.1,10.3.1,15.4,0a5.11,5.11,0,0,0,5.3-5.1,5,5,0,0,0-5.2-4.8Z"/><path class="cls-1" d="M256.26,74.78c-1.2,0-2.3-.1-3.5,0a5,5,0,0,0-.1,9.9,47,47,0,0,0,7.5,0,4.92,4.92,0,0,0-.3-9.8C258.66,74.78,257.46,74.78,256.26,74.78Z"/><path class="cls-1" d="M179.36,220.08c2,0,4-.1,6,0a5,5,0,0,1,5,4.9,4.85,4.85,0,0,1-4.8,5h0c-4.1.1-8.1.1-12.2,0a5,5,0,1,1,0-9.9Z"/><path class="cls-1" d="M185.36,2.48c2,0,4-.1,6,0a5,5,0,0,1,5,4.9,4.85,4.85,0,0,1-4.8,5h0c-4.1.1-8.1.1-12.2,0a4.91,4.91,0,0,1-5-5.1,4.91,4.91,0,0,1,5-4.8C181.36,2.38,183.36,2.48,185.36,2.48Z"/><path class="cls-1" d="M202.06,220.08a4.91,4.91,0,0,1,5.1,4.7h0v.3a5,5,0,0,1-10,0A4.93,4.93,0,0,1,202.06,220.08Z"/><path class="cls-1" d="M209.16,2.48a4.91,4.91,0,0,1,5.1,4.7h0v.3a5,5,0,1,1-9.9-.1A4.76,4.76,0,0,1,209.16,2.48Z"/></g></g></g></g></svg>