<svg xmlns="http://www.w3.org/2000/svg" viewBox="0 0 684.21 457.39"><defs><style>.cls-1{fill:#0d7377;}.cls-1,.cls-2,.cls-3{fill-rule:evenodd;}.cls-3{fill:none;}</style></defs><title>logo_1</title><g id="Layer_2" data-name="Layer 2"><g id="Layer_1-2" data-name="Layer 1"><path d="M163,427.11a4.73,4.73,0,0,0-5.53,3.63l-1.64,8.08a4.72,4.72,0,0,0,9.26,1.82l1.64-8.08A4.76,4.76,0,0,0,163,427.11Z"/><path d="M62,328.53a4.71,4.71,0,1,0-7.81-5.27l-4.54,6.81a4.65,4.65,0,0,0,7.72,5.17Z"/><path d="M33.72,266.71A4.7,4.7,0,0,0,28,263.53l-8.08,1.91a4.72,4.72,0,1,0,2.27,9.16l8-2A5,5,0,0,0,33.72,266.71Z"/><path d="M118.23,28a4.63,4.63,0,0,0,2.82,6,4.8,4.8,0,0,0,5.26-1.45l5.17-6.44A4.71,4.71,0,0,0,132,21Z"/><path d="M28.27,117.65l.27,1.36a4.66,4.66,0,0,0,5.63,3.45,4.75,4.75,0,0,0,3.54-5.35l-1.63-7.9a4.74,4.74,0,0,0-1.36-2.45Z"/><path d="M123.5,64.27a4.72,4.72,0,0,0-3.45,5.63V70a4.79,4.79,0,0,0,5.81,3.45H126l8-2a4.72,4.72,0,1,0-2.27-9.16Z"/><path d="M160.72,400.24A4.81,4.81,0,0,0,157,394.7l-8.08-1.63a4.79,4.79,0,0,0-5.53,3.72,4.54,4.54,0,0,0,3.63,5.45l8.08,1.63A4.71,4.71,0,0,0,160.72,400.24Z"/><path d="M95.72,339.69l-4.54,6.81A4.75,4.75,0,0,0,92.45,353a4.69,4.69,0,0,0,6.45-1.37l4.53-6.8a4.71,4.71,0,1,0-7.8-5.27Z"/><path d="M119.5,386.81l.37-8.17a4.76,4.76,0,1,0-9.45-1.09v.63l-.36,8.26A4.69,4.69,0,0,0,115,391,4.84,4.84,0,0,0,119.5,386.81Z"/><path d="M67.31,357.67l-8,2a4.72,4.72,0,0,0-3.45,5.63v.09a4.7,4.7,0,0,0,5.72,3.45l8-2a4.72,4.72,0,0,0-2.26-9.16Z"/><path d="M174.33,369.56a4.7,4.7,0,0,0-5.72-3.18l-8,2a4.72,4.72,0,0,0,2.27,9.17l8-2a4.71,4.71,0,0,0,3.45-5.72Z"/><path d="M203,130.63v-.54a4.72,4.72,0,0,0-5.63-3.45h-.09l-8.08,1.9a4.79,4.79,0,0,0-3.45,5.72,4.73,4.73,0,0,0,1,1.91Z"/><path d="M204.2,324.8l.91,3.54a4.69,4.69,0,0,0,5.81,3.27,4.79,4.79,0,0,0,3.44-4.9Z"/><path d="M134.21,191.09a4.43,4.43,0,0,0-3.81-.73,4.77,4.77,0,0,0-3.45,5.72l2.17,8a6.39,6.39,0,0,0,.82,1.73Z"/><path d="M162.71,151.51v-6.9a4.73,4.73,0,0,0-9.44-.73V153a4.51,4.51,0,0,0,2.91,4.27Z"/><path d="M208.19,35.31l8,1.91a4.73,4.73,0,0,0,2.18-9.17l-8-1.9a4.64,4.64,0,0,0-5.63,3.45A4.76,4.76,0,0,0,208.19,35.31Z"/><path d="M44.88,191a4.67,4.67,0,0,0,4.27-5.09l-.73-8.17a4.75,4.75,0,0,0-9.44.82l.73,8.17A4.84,4.84,0,0,0,44.88,191Z"/><path d="M53,294.67l-.72-8.17a4.79,4.79,0,0,0-5.45-3.91,4.63,4.63,0,0,0-3.9,4.72l.72,8.36a4.69,4.69,0,0,0,9.35-.82Z"/><path d="M76.75,134.44a4.69,4.69,0,0,0,4.9-4.53l.36-8.27a4.74,4.74,0,0,0-9.44-.36l-.36,8.17A4.89,4.89,0,0,0,76.75,134.44Z"/><path d="M112.06,171.75a4.79,4.79,0,0,0,6.26-2.27l3.45-7.44a4.73,4.73,0,0,0-8.62-3.9L110,165.58A4.54,4.54,0,0,0,112.06,171.75Z"/><path d="M46.06,219.59a4.7,4.7,0,0,0-3.9-5.35L34,213.06a4.7,4.7,0,1,0-1.63,9.26.54.54,0,0,1,.36.09l8.17,1.18A4.72,4.72,0,0,0,46.06,219.59Z"/><path d="M83.65,223.86a4.79,4.79,0,0,0-5.72-3.45l-8,2a4.72,4.72,0,1,0,2.27,9.17l8-2A4.72,4.72,0,0,0,83.65,223.86Z"/><path d="M125.13,273.15a4.77,4.77,0,0,0,1.36,6.45l6.81,4.54a4.77,4.77,0,0,0,6.45-1.37,4.68,4.68,0,0,0-1.37-6.44l-6.71-4.54A4.79,4.79,0,0,0,125.13,273.15Z"/><path d="M96.17,270.61a4.64,4.64,0,0,0-6.62.45l-5.45,6.18a4.7,4.7,0,0,0,7.08,6.17l5.45-6.17A4.64,4.64,0,0,0,96.17,270.61Z"/><path d="M93.81,61.55a4.57,4.57,0,0,0,5.63-3.45l1.91-8A4.7,4.7,0,1,0,92.18,48l-1.91,8a4.61,4.61,0,0,0,3.54,5.54Z"/><path d="M77.38,152.51l-7.71,2.72a4.74,4.74,0,1,0,3.26,8.9l7.72-2.73a4.64,4.64,0,0,0,2.81-6A4.71,4.71,0,0,0,77.38,152.51Z"/><path d="M156.09,325.17a4.71,4.71,0,0,0,6.53-1.36,4.78,4.78,0,0,0-.36-5.72l-6.17-5.54a4.7,4.7,0,0,0-6.18,7.08Z"/><path d="M194.48,101.76a4.7,4.7,0,0,0-.36-6.62L188,89.69a4.7,4.7,0,0,0-6.27,7l6.18,5.45A4.72,4.72,0,0,0,194.48,101.76Z"/><path d="M179.23,61.46a4.68,4.68,0,0,0,5.54,3.63l8.08-1.63a4.76,4.76,0,0,0,3.81-5.54v-.09a4.65,4.65,0,0,0-5.53-3.63l-8.08,1.63A4.72,4.72,0,0,0,179.23,61.46Z"/><path d="M178.6,19.43a4.72,4.72,0,0,0,5.17-7.9L177,7a4.72,4.72,0,0,0-5.17,7.9Z"/><path d="M160.17,104.58V96.41a4.73,4.73,0,1,0-9.44-.73v9.08a4.76,4.76,0,0,0,5.08,4.36A5,5,0,0,0,160.17,104.58Z"/><path d="M203,365.65a4.71,4.71,0,0,0-5.27,7.81l6.9,4.54a4.71,4.71,0,0,0,5.27-7.81Z"/><path d="M222.53,421.66a4.79,4.79,0,0,0-5.53,3.73l-1.64,8.08a4.72,4.72,0,0,0,9.26,1.81l1.64-8.08A4.81,4.81,0,0,0,222.53,421.66Z"/><path d="M114.78,311.73l7.9-2.18a4.72,4.72,0,1,0-2.27-9.16l-8,2a4.82,4.82,0,0,0,2.36,9.35Z"/><path d="M183.41,346.14a4.76,4.76,0,0,0,3.63-5.63v-.09l-2-8a4.72,4.72,0,0,0-5.62-3.45h-.1a4.77,4.77,0,0,0-3.44,5.72l2,8A4.72,4.72,0,0,0,183.41,346.14Z"/><path d="M125,430.56a4.75,4.75,0,0,0,5.17-4.18,4.56,4.56,0,0,0-1.36-3.81L123,416.76a4.75,4.75,0,1,0-6.62,6.81l5.53,5.54Z"/><path d="M60.41,263.53a4.71,4.71,0,1,0,7.8-5.27,4.47,4.47,0,0,0-1.09-1.18l-5.81-5.81a4.68,4.68,0,1,0-6.62,6.63Z"/><path d="M7,207.7a4.67,4.67,0,0,0,4.9-4.45l.36-8.17a4.68,4.68,0,1,0-9.35-.45l-.27,8.26A4.63,4.63,0,0,0,7,207.7Z"/><path d="M130.76,130.18a4.79,4.79,0,0,0,3.45-5.72l-1.82-8a4.72,4.72,0,1,0-9.17,2.27l2,8A4.64,4.64,0,0,0,130.76,130.18Z"/><path d="M1.4,253a4.77,4.77,0,0,0,4.09-1.09l6.17-5.45a4.73,4.73,0,1,0-5.72-7.53c-.18.18-.36.27-.55.45L.58,243.65Z"/><path d="M152.27,45.48l7.45,3.45a4.7,4.7,0,0,0,3.9-8.53L156.18,37a4.72,4.72,0,0,0-6.27,2.27A4.83,4.83,0,0,0,152.27,45.48Z"/><path d="M54,80.52a4.86,4.86,0,0,0,2.09,3.63l6.81,4.54a4.78,4.78,0,0,0,6.44-1.9,4.88,4.88,0,0,0-1.18-6l-6.9-4.53a4.86,4.86,0,0,0-3-.73Z"/><path d="M109.15,88.51a4.73,4.73,0,0,0-6.44,1.27l-4.54,6.81A4.72,4.72,0,0,0,99.89,103a4.87,4.87,0,0,0,6.18-1.18l4.54-6.8A4.66,4.66,0,0,0,109.15,88.51Z"/><path d="M24.37,164.58l8-2a4.72,4.72,0,0,0-2.27-9.17l-8,2a4.72,4.72,0,0,0,2.27,9.17Z"/><path d="M187.31,415.76l4.54-6.8a4.72,4.72,0,0,0-7.9-5.18l-4.53,6.81a4.7,4.7,0,0,0,1.36,6.54A4.77,4.77,0,0,0,187.31,415.76Z"/><path d="M192.22,452.35l2.63-3a4.7,4.7,0,1,0-7.08-6.17l-5.45,6.17a8.64,8.64,0,0,0-.73,1.09Z"/><path d="M18.38,317.27a5.63,5.63,0,0,0,2.45,0l8-2a4.72,4.72,0,0,0-2.27-9.17l-8,2a4.68,4.68,0,0,0-2.91,2.18Z"/><path d="M85.55,201.44A4.78,4.78,0,0,0,92,200.08l4.54-6.81a4.72,4.72,0,0,0-7.9-5.18L84.1,194.9A4.82,4.82,0,0,0,85.55,201.44Z"/><path d="M143.74,355.94l-6.9-4.54a4.71,4.71,0,1,0-5.26,7.81l6.8,4.54a4.69,4.69,0,0,0,6.54-1.27A4.59,4.59,0,0,0,143.74,355.94Z"/><path d="M113.24,231.39a4.72,4.72,0,0,0-3.36,5.72l2,8a4.72,4.72,0,0,0,9.17-2.27l-2-8A4.71,4.71,0,0,0,113.24,231.39Z"/><path d="M80,400.69a4.79,4.79,0,0,0,5.81-1.63l4.54-6.9a4.7,4.7,0,0,0-7.8-5.26L78,393.7a4.69,4.69,0,0,0,0,5.09Z"/><path d="M87.09,323.62a4.72,4.72,0,1,0,5.18-7.89l-6.81-4.54A4.72,4.72,0,0,0,79,312.91a4.88,4.88,0,0,0,1.18,6.18Z"/><path d="M232.65,0h0Z"/><path class="cls-1" d="M684.21,228.7q0,5.61-.27,11.22t-.83,11.19q-.55,5.59-1.37,11.15t-1.92,11.05q-1.1,5.52-2.46,11t-3,10.82q-1.62,5.37-3.52,10.65t-4,10.48q-2.14,5.17-4.55,10.26t-5,10q-2.65,5-5.54,9.77t-6,9.48q-3.12,4.68-6.47,9.18c-2.22,3-4.53,6-6.9,8.85s-4.82,5.73-7.33,8.5-5.1,5.48-7.74,8.13-5.36,5.23-8.13,7.74-5.61,5-8.5,7.33-5.84,4.68-8.85,6.91-6.07,4.38-9.18,6.46-6.27,4.08-9.48,6-6.47,3.77-9.77,5.53-6.64,3.45-10,5.05S546.49,438.55,543,440s-6.95,2.77-10.47,4-7.08,2.43-10.66,3.52-7.19,2.08-10.82,3-7.28,1.73-10.95,2.46-7.36,1.37-11.06,1.92-7.41,1-11.14,1.37-7.46.64-11.19.83-7.48.27-11.23.27-7.48-.09-11.22-.27-7.47-.46-11.19-.83c-2.91-.28-5.82-.62-8.71-1l-2.43-.35q-5.55-.82-11.06-1.92T400,450.54q-5.44-1.37-10.82-3T378.47,444c-3.52-1.27-7-2.61-10.47-4s-6.88-2.95-10.27-4.55-6.72-3.29-10-5.05q-4.38-2.34-8.65-4.87a227.72,227.72,0,0,0,2.11-394.88c2.16-1.24,4.34-2.46,6.54-3.63q4.95-2.66,10-5.05T368,17.41c3.45-1.43,6.95-2.78,10.47-4s7.08-2.43,10.66-3.52,7.19-2.08,10.82-3,7.28-1.73,10.95-2.46S418.26,3,422,2.48s7.41-1,11.14-1.38,7.45-.64,11.19-.82Q449.2,0,454.11,0h1.4q5.63,0,11.23.28c3.73.18,7.47.46,11.19.82s7.44.83,11.14,1.38,7.39,1.19,11.06,1.92S507.45,6,511.08,6.86s7.24,1.9,10.82,3,7.14,2.26,10.66,3.52,7,2.61,10.47,4,6.88,2.95,10.27,4.55,6.72,3.28,10,5.05,6.56,3.61,9.77,5.53,6.37,3.93,9.48,6,6.17,4.24,9.18,6.47,6,4.53,8.85,6.9,5.72,4.82,8.5,7.34,5.48,5.09,8.13,7.74,5.22,5.35,7.74,8.13,4.95,5.6,7.33,8.5,4.68,5.84,6.9,8.84,4.39,6.07,6.47,9.18,4.08,6.27,6,9.49,3.77,6.46,5.54,9.76,3.44,6.64,5,10,3.12,6.8,4.55,10.26,2.78,6.95,4,10.47,2.44,7.08,3.52,10.66,2.09,7.19,3,10.82,1.73,7.28,2.46,11,1.37,7.36,1.92,11.06,1,7.42,1.37,11.14.64,7.46.83,11.2S684.21,225,684.21,228.7Z"/><path class="cls-2" d="M454.38,227.85A227.43,227.43,0,0,1,226.53,455.07V397.25a3.26,3.26,0,0,1-.82.36l-8,2a4.72,4.72,0,0,1-2.27-9.17l8-2a4.34,4.34,0,0,1,3.18.36V357.12l-1.18.27a4.72,4.72,0,1,1-2.27-9.16l3.54-.91V327.44a100,100,0,1,0,0-199.9V116.2a3.45,3.45,0,0,1-1.18.54,4.66,4.66,0,0,1-5.81-3.27l-2-8a4.68,4.68,0,0,1,2.82-5.63,4.58,4.58,0,0,1,6,2.63V71.63L225,73.9a4.71,4.71,0,0,1-7.81-5.27l4.54-6.81a4.69,4.69,0,0,1,4.72-2l-.18-52.28A4.64,4.64,0,0,1,220.54.73l.53-.72h11.58A227.28,227.28,0,0,1,454.38,227.85Z"/><path class="cls-3" d="M422,454.92l2.43.35H0V0H221.07l-.53.72a4.64,4.64,0,0,0,5.72,6.81l.18,52.28a4.69,4.69,0,0,0-4.72,2l-4.54,6.81A4.71,4.71,0,0,0,225,73.9l1.54-2.27v30.86a4.58,4.58,0,0,0-6-2.63,4.68,4.68,0,0,0-2.82,5.63l2,8a4.66,4.66,0,0,0,5.81,3.27,3.45,3.45,0,0,0,1.18-.54v11.34a100,100,0,1,1,0,199.9v19.88l-3.54.91a4.72,4.72,0,1,0,2.27,9.16l1.18-.27V388.8a4.34,4.34,0,0,0-3.18-.36l-8,2a4.72,4.72,0,0,0,2.27,9.17l8-2a3.26,3.26,0,0,0,.82-.36v57.82a226.36,226.36,0,0,0,112.53-29.55q4.26,2.53,8.65,4.87,4.95,2.64,10,5.05T368,440c3.45,1.43,6.95,2.77,10.47,4s7.08,2.43,10.66,3.52,7.19,2.08,10.82,3,7.28,1.73,10.95,2.46S418.26,454.37,422,454.92Z"/><path class="cls-3" d="M454.11,0q-4.92,0-9.82.27-5.61.27-11.19.82T422,2.48q-5.55.82-11.06,1.92T400,6.86q-5.44,1.36-10.82,3t-10.66,3.52c-3.52,1.26-7,2.61-10.47,4s-6.88,2.95-10.27,4.55-6.72,3.28-10,5.05c-2.2,1.17-4.38,2.39-6.54,3.63A226.39,226.39,0,0,0,232.65,0Z"/></g></g></svg>