<svg xmlns="http://www.w3.org/2000/svg" xmlns:xlink="http://www.w3.org/1999/xlink" viewBox="0 0 572.22 237.76"><defs><style>.cls-1{fill:none;}.cls-2{fill:#14ffec;}.cls-3{clip-path:url(#clip-path);}.cls-4{clip-path:url(#clip-path-3);}.cls-5{fill:#fff;}</style><clipPath id="clip-path" transform="translate(-0.1 0)"><rect class="cls-1" x="334.88" width="237.75" height="237.75"/></clipPath><clipPath id="clip-path-3" transform="translate(-0.1 0)"><rect class="cls-1" x="48.44" y="49.46" width="177" height="243" transform="translate(-58.27 270.34) rotate(-78.29)"/></clipPath></defs><title>placeholder</title><g id="Layer_2" data-name="Layer 2"><g id="Layer_1-2" data-name="Layer 1"><path class="cls-2" d="M166.7,118.88c0,1.94,0,3.89.14,5.83s.24,3.88.43,5.82.43,3.87.71,5.79.62,3.84,1,5.75.81,3.81,1.28,5.69,1,3.77,1.56,5.63,1.17,3.71,1.83,5.54,1.35,3.64,2.1,5.44,1.53,3.58,2.36,5.34,1.71,3.49,2.62,5.21,1.88,3.41,2.88,5.07,2,3.32,3.12,4.93,2.2,3.21,3.36,4.78,2.36,3.09,3.59,4.6,2.51,3,3.81,4.41,2.65,2.85,4,4.23,2.78,2.72,4.22,4,2.92,2.58,4.42,3.81,3,2.43,4.6,3.59,3.15,2.28,4.77,3.36,3.26,2.12,4.93,3.13,3.36,2,5.08,2.87,3.45,1.79,5.21,2.62,3.54,1.62,5.33,2.37,3.61,1.44,5.45,2.1,3.67,1.26,5.54,1.83,3.73,1.08,5.62,1.56,3.79.89,5.69,1.27,3.83.72,5.75,1,3.86.52,5.79.72,3.88.33,5.82.42,3.89.15,5.84.15,3.89,0,5.83-.15,3.88-.23,5.82-.42,3.86-.43,5.79-.72,3.84-.62,5.75-1,3.8-.8,5.69-1.27,3.76-1,5.62-1.56,3.71-1.18,5.54-1.83,3.65-1.36,5.45-2.1,3.57-1.53,5.33-2.37,3.5-1.7,5.21-2.62,3.41-1.87,5.08-2.87,3.31-2,4.93-3.13,3.21-2.2,4.77-3.36,3.1-2.35,4.6-3.59,3-2.5,4.42-3.81,2.85-2.65,4.23-4,2.71-2.79,4-4.23,2.58-2.91,3.81-4.41,2.43-3,3.59-4.6,2.28-3.16,3.36-4.78,2.12-3.26,3.12-4.93,2-3.36,2.88-5.07,1.79-3.45,2.62-5.21,1.62-3.54,2.37-5.34,1.44-3.61,2.1-5.44,1.26-3.68,1.83-5.54,1.08-3.74,1.55-5.63.9-3.78,1.28-5.69.71-3.82,1-5.75.52-3.85.71-5.79.34-3.87.43-5.82.14-3.89.14-5.83,0-3.89-.14-5.83-.24-3.89-.43-5.82-.43-3.87-.71-5.79-.62-3.84-1-5.75-.81-3.81-1.28-5.7-1-3.76-1.55-5.62-1.18-3.71-1.83-5.54-1.36-3.65-2.1-5.44-1.54-3.58-2.37-5.34-1.71-3.49-2.62-5.21-1.88-3.41-2.88-5.08-2-3.31-3.12-4.93-2.2-3.2-3.36-4.77-2.36-3.09-3.59-4.6-2.5-3-3.81-4.42-2.65-2.85-4-4.22-2.79-2.72-4.23-4S362.5,28.22,361,27s-3-2.43-4.6-3.59-3.15-2.27-4.77-3.36-3.26-2.12-4.93-3.12-3.36-2-5.08-2.87-3.45-1.79-5.21-2.63-3.53-1.62-5.33-2.36S327.46,7.6,325.62,7,322,5.68,320.08,5.12,316.35,4,314.46,3.56s-3.78-.9-5.69-1.28-3.83-.71-5.75-1-3.86-.53-5.79-.72-3.88-.33-5.82-.43S287.52,0,285.58,0s-3.89.05-5.84.14-3.88.24-5.82.43-3.86.43-5.79.72-3.84.61-5.75,1-3.8.81-5.69,1.28-3.76,1-5.62,1.56S247.36,6.29,245.53,7s-3.65,1.35-5.45,2.1-3.57,1.53-5.33,2.36-3.5,1.71-5.21,2.63-3.41,1.87-5.08,2.87-3.31,2-4.93,3.12-3.21,2.21-4.77,3.36-3.1,2.36-4.6,3.59-3,2.51-4.42,3.82-2.85,2.64-4.22,4-2.72,2.78-4,4.22-2.57,2.92-3.81,4.42-2.43,3-3.59,4.6-2.28,3.16-3.36,4.77-2.12,3.26-3.12,4.93-2,3.36-2.88,5.08-1.79,3.45-2.62,5.21-1.62,3.54-2.36,5.34-1.45,3.61-2.1,5.44-1.27,3.68-1.83,5.54-1.09,3.74-1.56,5.62-.9,3.79-1.28,5.7-.71,3.82-1,5.75-.52,3.85-.71,5.79-.33,3.87-.43,5.82S166.7,116.93,166.7,118.88Z" transform="translate(-0.1 0)"/><g class="cls-3"><g class="cls-3"><path d="M487.51,14.7a2.48,2.48,0,0,0,2.89-1.9l.85-4.22a2.46,2.46,0,1,0-4.83-1l-.86,4.22A2.49,2.49,0,0,0,487.51,14.7Zm52.76,51.48a2.46,2.46,0,0,0,4.08,2.75l2.37-3.55a2.43,2.43,0,0,0-4-2.71ZM555,98.47a2.46,2.46,0,0,0,3,1.66l4.22-1A2.47,2.47,0,0,0,561,94.34l-4.18,1A2.65,2.65,0,0,0,555,98.47ZM510.88,223.15a2.43,2.43,0,0,0-1.47-3.13,2.5,2.5,0,0,0-2.75.76l-2.7,3.36a2.46,2.46,0,0,0-.29,2.66m54.19-50.49-.14-.71a2.43,2.43,0,0,0-2.94-1.8,2.47,2.47,0,0,0-1.85,2.79l.85,4.13a2.53,2.53,0,0,0,.71,1.28m-46.36,22.19a2.47,2.47,0,0,0,1.8-2.94v-.05a2.5,2.5,0,0,0-3-1.8h0l-4.17,1a2.47,2.47,0,1,0,1.18,4.79ZM488.69,28.73a2.5,2.5,0,0,0,1.94,2.89l4.22.85a2.51,2.51,0,0,0,2.9-1.94,2.36,2.36,0,0,0-1.9-2.84l-4.22-.86A2.47,2.47,0,0,0,488.69,28.73Zm33.94,31.62L525,56.79a2.47,2.47,0,0,0-.67-3.36,2.43,2.43,0,0,0-3.36.71l-2.37,3.56a2.45,2.45,0,1,0,4.07,2.74Zm-12.42-24.6L510,40a2.48,2.48,0,0,0,4.93.57v-.33l.19-4.31a2.45,2.45,0,0,0-2.56-2.38A2.55,2.55,0,0,0,510.21,35.75ZM537.47,51l4.18-1a2.48,2.48,0,0,0,1.8-2.94v0a2.47,2.47,0,0,0-3-1.8l-4.17,1A2.46,2.46,0,1,0,537.47,51Zm-55.89-6.21a2.46,2.46,0,0,0,3,1.66l4.17-1a2.47,2.47,0,0,0-1.19-4.79l-4.17,1a2.46,2.46,0,0,0-1.8,3Zm-15,124.78v.28a2.48,2.48,0,0,0,2.94,1.81h0l4.21-1a2.43,2.43,0,0,0,1.28-4M466,68.13l-.47-1.85a2.46,2.46,0,0,0-3-1.71,2.52,2.52,0,0,0-1.8,2.56M502.53,138a2.35,2.35,0,0,0,2,.38,2.51,2.51,0,0,0,1.8-3l-1.14-4.17a3.25,3.25,0,0,0-.43-.9m-17.11,28.35v3.6a2.47,2.47,0,0,0,4.93.38v-4.74a2.35,2.35,0,0,0-1.52-2.23M463.9,219.31l-4.18-1a2.47,2.47,0,0,0-1.13,4.79l4.17,1a2.43,2.43,0,0,0,2.94-1.8A2.49,2.49,0,0,0,463.9,219.31ZM549.18,138a2.44,2.44,0,0,0-2.22,2.66l.37,4.27a2.48,2.48,0,0,0,4.93-.43l-.37-4.27A2.54,2.54,0,0,0,549.18,138ZM545,83.86l.38,4.27a2.5,2.5,0,0,0,2.85,2,2.43,2.43,0,0,0,2-2.47l-.38-4.36a2.45,2.45,0,0,0-4.89.43Zm-12.42,83.68a2.45,2.45,0,0,0-2.56,2.37l-.19,4.31a2.47,2.47,0,0,0,4.93.19l.19-4.26A2.56,2.56,0,0,0,532.54,167.54ZM514.1,148.05a2.51,2.51,0,0,0-3.27,1.19l-1.8,3.89a2.47,2.47,0,0,0,4.5,2l1.66-3.89A2.37,2.37,0,0,0,514.1,148.05Zm34.47-25a2.46,2.46,0,0,0,2,2.8l4.26.61a2.45,2.45,0,1,0,.86-4.83c-.05,0-.15,0-.19-.05l-4.27-.62A2.47,2.47,0,0,0,548.57,123.07Zm-19.63-2.23a2.49,2.49,0,0,0,3,1.8l4.17-1a2.47,2.47,0,0,0-1.19-4.79l-4.17,1A2.45,2.45,0,0,0,528.94,120.84ZM507.27,95.1a2.48,2.48,0,0,0-.71-3.37L503,89.36a2.49,2.49,0,0,0-3.37.71,2.46,2.46,0,0,0,.71,3.37l3.51,2.37A2.49,2.49,0,0,0,507.27,95.1Zm15.13,1.33a2.43,2.43,0,0,0,3.46-.24L528.7,93A2.45,2.45,0,1,0,525,89.74L522.16,93A2.42,2.42,0,0,0,522.4,96.43Zm1.23,109.18a2.39,2.39,0,0,0-2.94,1.8l-1,4.17a2.45,2.45,0,1,0,4.78,1.09l1-4.17a2.4,2.4,0,0,0-1.85-2.89Zm8.58-47.51,4-1.42a2.47,2.47,0,1,0-1.71-4.64l-4,1.42a2.43,2.43,0,0,0-1.47,3.13A2.46,2.46,0,0,0,532.21,158.1Zm-41.1-90.16a2.45,2.45,0,0,0-3.41.71,2.48,2.48,0,0,0,.18,3l3.23,2.9a2.45,2.45,0,0,0,3.22-3.7ZM471.06,184.61a2.46,2.46,0,0,0,.18,3.46l3.23,2.84a2.45,2.45,0,0,0,3.27-3.65l-3.22-2.84A2.46,2.46,0,0,0,471.06,184.61Zm8,21a2.43,2.43,0,0,0-2.89-1.89l-4.22.85a2.48,2.48,0,0,0-2,2.89v.05a2.43,2.43,0,0,0,2.89,1.9l4.22-.86A2.47,2.47,0,0,0,479,205.65Zm.33,21.95a2.47,2.47,0,0,0-2.7,4.13l3.55,2.37a2.47,2.47,0,1,0,2.71-4.12ZM489,183.14v4.26a2.47,2.47,0,1,0,4.93.38V183a2.49,2.49,0,0,0-2.66-2.27A2.61,2.61,0,0,0,489,183.14ZM466.6,46.79a2.46,2.46,0,0,0,2.75-4.08l-3.6-2.37A2.46,2.46,0,1,0,463,44.42ZM456.41,17.54a2.51,2.51,0,0,0,2.89-1.94l.85-4.22a2.46,2.46,0,1,0-4.83-1l-.86,4.22A2.51,2.51,0,0,0,456.41,17.54ZM512.68,75l-4.13,1.14a2.47,2.47,0,1,0,1.19,4.79l4.17-1A2.52,2.52,0,0,0,512.68,75ZM476.84,57a2.5,2.5,0,0,0-1.9,2.94v0L476,64.14a2.45,2.45,0,0,0,2.93,1.8H479a2.48,2.48,0,0,0,1.8-3l-1-4.17A2.46,2.46,0,0,0,476.84,57Zm30.53-44.09a2.48,2.48,0,0,0-2.7,2.19,2.37,2.37,0,0,0,.71,2l3,3a2.48,2.48,0,1,0,3.46-3.55L509,13.65m32.1,86.48a2.46,2.46,0,1,0-4.08,2.74,2.22,2.22,0,0,0,.57.62l3,3a2.45,2.45,0,0,0,3.46-3.47ZM569,129.28a2.45,2.45,0,0,0-2.56,2.32l-.19,4.27a2.45,2.45,0,0,0,4.89.24l.14-4.32A2.42,2.42,0,0,0,569,129.28Zm-64.61,40.49a2.5,2.5,0,0,0-1.81,3l1,4.18a2.47,2.47,0,0,0,4.79-1.19l-1-4.17A2.41,2.41,0,0,0,504.34,169.77Zm67.55-64.15a2.49,2.49,0,0,0-2.13.57L566.53,109a2.47,2.47,0,0,0,3,3.93c.1-.09.19-.14.29-.23l2.51-2.23M493.1,214l-3.89-1.8a2.45,2.45,0,0,0-2,4.45l3.89,1.81a2.47,2.47,0,0,0,3.27-1.19A2.53,2.53,0,0,0,493.1,214Zm51.34-18.3a2.52,2.52,0,0,0-1.09-1.9l-3.55-2.37a2.5,2.5,0,0,0-3.37,1,2.55,2.55,0,0,0,.62,3.13l3.6,2.37a2.65,2.65,0,0,0,1.56.38m-26.59-6.78a2.47,2.47,0,0,0,3.36-.67l2.37-3.55a2.46,2.46,0,0,0-.9-3.37,2.55,2.55,0,0,0-3.22.62l-2.37,3.55A2.43,2.43,0,0,0,515.62,191.53ZM559.9,151.8l-4.17,1a2.47,2.47,0,1,0,1.18,4.79l4.17-1a2.47,2.47,0,0,0-1.18-4.79ZM474.8,20.62l-2.37,3.56a2.46,2.46,0,0,0,4.12,2.7l2.37-3.56a2.45,2.45,0,0,0-.71-3.41A2.49,2.49,0,0,0,474.8,20.62Zm-2.56-19.1-1.37,1.56a2.45,2.45,0,0,0,3.69,3.23l2.85-3.23a4.7,4.7,0,0,0,.38-.57M563,72.06a3.07,3.07,0,0,0-1.28,0l-4.18,1a2.47,2.47,0,1,0,1.19,4.79l4.17-1a2.42,2.42,0,0,0,1.52-1.14m-36.51,56.84a2.48,2.48,0,0,0-3.36.71l-2.37,3.56a2.46,2.46,0,1,0,4.12,2.7L528.7,136A2.52,2.52,0,0,0,527.94,132.55ZM497.56,51.86l3.6,2.37a2.46,2.46,0,1,0,2.75-4.07l-3.56-2.37a2.44,2.44,0,0,0-3.41.66A2.39,2.39,0,0,0,497.56,51.86Zm15.93,65.05a2.47,2.47,0,0,0,1.75-3l-1-4.17a2.47,2.47,0,0,0-4.79,1.18l1,4.18A2.46,2.46,0,0,0,513.49,116.91Zm17.35-88.42a2.52,2.52,0,0,0-3,.86L525.43,33a2.46,2.46,0,0,0,4.08,2.75l2.37-3.56a2.45,2.45,0,0,0,0-2.65m-4.74,39.25a2.47,2.47,0,0,0-2.7,4.13L528,75.24a2.48,2.48,0,0,0,3.37-.9,2.56,2.56,0,0,0-.62-3.23Zm-75.85,169h5.87l.29-.38a2.42,2.42,0,0,0-3-3.55l-.09-27.31a2.44,2.44,0,0,0,2.46-1l2.37-3.56a2.46,2.46,0,1,0-4.07-2.75l-.81,1.19V184.23a2.4,2.4,0,0,0,3.13,1.37,2.45,2.45,0,0,0,1.47-2.94l-1-4.17a2.44,2.44,0,0,0-3-1.71,1.88,1.88,0,0,0-.61.29v-5.93a52.2,52.2,0,1,1,0-104.39V56.37l1.84-.48a2.46,2.46,0,1,0-1.18-4.78l-.62.14V34.7a2.23,2.23,0,0,0,1.66.19l4.17-1a2.47,2.47,0,1,0-1.18-4.79l-4.17,1a1.82,1.82,0,0,0-.43.19V.09a118.85,118.85,0,0,0-3,237.66Z" transform="translate(-0.1 0)"/></g></g><g class="cls-4"><g class="cls-4"><path d="M168.48,146.4c-23.84,18.58-56.9,35-90.44,14C46.7,140.77,12,175.62,12,175.62L.1,233s37.42-39.06,68.66-19.47c33.56,20.94,66.84,18.62,91.61,1.33,36.33-25.42,81.18-17.53,81.18-17.53l13.53-65.25S202.56,119.76,168.48,146.4Z" transform="translate(-0.1 0)"/><path class="cls-5" d="M32,143.57l.4-.35c.8-.7,19.91-16.9,44.59-11.78a51.54,51.54,0,0,1,16.82,6.85,60.94,60.94,0,0,0,20.43,8.35c20.72,4.3,43.67-3.19,68.16-22.28,31.69-24.53,78-16.55,87-14.69l2.5.52-15.06,72.63-1.65-.45s-1.85-.5-4.87-1.12c-13.64-2.83-48.56-7.25-76.91,12.66-21.35,15-45.33,20.62-67.72,16a80.2,80.2,0,0,1-26.94-11,52,52,0,0,0-16.91-7c-22-4.55-38.58,9-38.72,9.21l-3.55,2.95Z" transform="translate(-0.1 0)"/><path d="M189.25,140l1.87.93a1.21,1.21,0,1,1-1.1,2.15l-1.87-.93a1.2,1.2,0,0,1-.53-1.62A1.21,1.21,0,0,1,189.25,140Zm55.61,7.3,1.6-1.4a1.21,1.21,0,1,1,1.57,1.84l-1.59,1.4a1.21,1.21,0,0,1-1.58-1.84Zm8.66,19,.21,2.1a1.17,1.17,0,1,1-2.33.27l-.22-2.1a1.14,1.14,0,0,1,1-1.3A1.19,1.19,0,0,1,253.52,166.31Zm-29.25-42.8-2.08-.44a1.16,1.16,0,1,1,.47-2.28l2.08.43a1.18,1.18,0,0,1,.91,1.38A1.19,1.19,0,0,1,224.27,123.51Zm28.37,11.4,1.68-1.27a1.2,1.2,0,1,1,1.44,1.92l-1.67,1.28a1.2,1.2,0,0,1-1.69-.24A1.3,1.3,0,0,1,252.64,134.91ZM240.38,160,242,158.6a1.22,1.22,0,0,1,1.58,1.85l-1.6,1.4a1.2,1.2,0,0,1-1.71-.14A1.19,1.19,0,0,1,240.38,160Zm1.7-32.81,1.59-1.41a1.21,1.21,0,0,1,1.57,1.85l-1.59,1.4a1.21,1.21,0,1,1-1.57-1.84Zm-5.82,19.16,1.87.93a1.21,1.21,0,0,1-1.1,2.16l-1.87-.93a1.21,1.21,0,0,1-.53-1.63A1.3,1.3,0,0,1,236.26,146.36Zm20.49,11.19-2.09-.43a1.17,1.17,0,1,1,.48-2.29l2.08.43a1.17,1.17,0,0,1-.47,2.29Zm-26.88-26.49,2-.44a1.18,1.18,0,1,1,.61,2.29l-2.05.44a1.19,1.19,0,0,1-1.45-.84A1.14,1.14,0,0,1,229.87,131.06Zm30.85-16.79-.43,2.07a1.17,1.17,0,0,1-2.29-.47l.43-2.08a1.19,1.19,0,0,1,1.38-.91A1.07,1.07,0,0,1,260.72,114.27Zm-52.42,1.37,2.13.23a1.17,1.17,0,0,1-.27,2.33L208,118a1.12,1.12,0,0,1-1-1.3A1.19,1.19,0,0,1,208.3,115.64Zm5.59,28.58,1.87.93a1.21,1.21,0,0,1-1.1,2.16l-1.87-.93a1.21,1.21,0,0,1-.53-1.63A1.13,1.13,0,0,1,213.89,144.22Zm-9.23-4.73-2.08-.43a1.17,1.17,0,1,1,.47-2.29l2.09.43a1.17,1.17,0,1,1-.48,2.29Zm34.44-1.1.54-2a1.22,1.22,0,1,1,2.37.6l-.53,2.05a1.23,1.23,0,1,1-2.38-.6Zm-44.82-11.67,1.59-1.41a1.22,1.22,0,0,1,1.58,1.85l-1.6,1.4a1.21,1.21,0,0,1-1.71-.14A1.19,1.19,0,0,1,194.28,126.72Zm26.37,11.1-.8-1.9a1.22,1.22,0,0,1,.66-1.6,1.33,1.33,0,0,1,1.6.66l.8,1.9a1.22,1.22,0,0,1-.66,1.6A1.34,1.34,0,0,1,220.65,137.82Zm12.92,33.56-1.92-.72a1.23,1.23,0,1,1,.81-2.32l1.92.72a1.37,1.37,0,0,1,.76,1.56A1.2,1.2,0,0,1,233.57,171.38Zm-6.31-17.24-.22,2.12a1.18,1.18,0,0,1-2.34-.26l.22-2.12a1.12,1.12,0,0,1,1.3-1A1.06,1.06,0,0,1,227.26,154.14ZM210,128.56l1.59-1.4a1.21,1.21,0,0,1,1.58,1.84l-1.6,1.4a1.21,1.21,0,1,1-1.57-1.84Zm-4,37.21,1.87.92a1.21,1.21,0,0,1-1.1,2.16l-1.87-.93a1.21,1.21,0,0,1-.53-1.63A1.3,1.3,0,0,1,206,165.77Zm41.5,9.9-1.22,1.7a1.21,1.21,0,1,1-2-1.39l1.22-1.7a1.21,1.21,0,0,1,1.69-.3A1.37,1.37,0,0,1,247.45,175.67Zm-6.54-57.49-1.41-1.6a1.21,1.21,0,1,1,1.84-1.56l1.41,1.59a1.21,1.21,0,0,1-1.84,1.57Zm-19.15,50.43,1.59-1.4a1.21,1.21,0,0,1,1.58,1.84l-1.6,1.4a1.21,1.21,0,1,1-1.57-1.84Zm-7.21-10.81,2-.45a1.19,1.19,0,0,1,.61,2.3l-2.05.44a1.21,1.21,0,0,1-1.45-.84A1.23,1.23,0,0,1,214.55,157.8ZM202.71,151l1.59-1.41a1.21,1.21,0,0,1,1.71.14,1.19,1.19,0,0,1-.13,1.7l-1.6,1.41a1.21,1.21,0,0,1-1.71-.14A1.3,1.3,0,0,1,202.71,151Zm-20.18,1.45,1.6-1.41a1.21,1.21,0,0,1,1.57,1.85l-1.59,1.4a1.2,1.2,0,0,1-1.71-.14A1.19,1.19,0,0,1,182.53,152.46Zm5,18.37.22,2.1a1.18,1.18,0,1,1-2.34.28l-.22-2.11a1.16,1.16,0,0,1,1-1.3A1.08,1.08,0,0,1,187.52,170.83ZM165,186.21l-2.08-.43a1.17,1.17,0,0,1,.47-2.29l2.08.43a1.17,1.17,0,1,1-.47,2.29Zm9.51-21.76L176.1,163a1.22,1.22,0,0,1,1.58,1.85l-1.6,1.4a1.2,1.2,0,0,1-1.71-.14A1.19,1.19,0,0,1,174.51,164.45Zm6.33-33.15,1.59-1.4a1.21,1.21,0,0,1,1.58,1.84l-1.6,1.4a1.2,1.2,0,0,1-1.71-.14A1.19,1.19,0,0,1,180.84,131.3Zm15.11,45,1.6-1.4a1.21,1.21,0,1,1,1.57,1.84l-1.59,1.41a1.22,1.22,0,0,1-1.58-1.85Zm-29.8-31.21L168,146a1.21,1.21,0,0,1-1.1,2.16l-1.87-.93a1.21,1.21,0,0,1-.53-1.63A1.16,1.16,0,0,1,166.15,145.05Zm28.4,16.51-2.08-.43a1.17,1.17,0,0,1,.47-2.29l2.08.43a1.18,1.18,0,0,1,.91,1.38A1.06,1.06,0,0,1,194.55,161.56Zm-32,4.09-.43,2.08a1.17,1.17,0,0,1-2.29-.48l.43-2.08a1.18,1.18,0,0,1,1.38-.9A1.06,1.06,0,0,1,162.53,165.65Zm-3.31,30.09,1.6-1.4a1.21,1.21,0,1,1,1.57,1.84l-1.59,1.4a1.21,1.21,0,1,1-1.58-1.84ZM152.8,189l1.87.93a1.21,1.21,0,1,1-1.1,2.16l-1.87-.93a1.21,1.21,0,1,1,1.1-2.16ZM214,177.19l-2.08-.43a1.17,1.17,0,0,1,.47-2.29l2.08.43a1.17,1.17,0,1,1-.47,2.29Zm-40.8-34.25.54-2.06a1.22,1.22,0,0,1,2.37.6l-.53,2.06a1.21,1.21,0,0,1-1.49.88A1.19,1.19,0,0,1,173.21,142.94Zm-27.36,27.71,1.6-1.41a1.21,1.21,0,0,1,1.57,1.85l-1.59,1.4a1.21,1.21,0,0,1-1.71-.14A1.19,1.19,0,0,1,145.85,170.65Zm6.38,10.64-.8-1.9a1.22,1.22,0,0,1,.65-1.6,1.34,1.34,0,0,1,1.61.66l.8,1.9a1.2,1.2,0,0,1-.66,1.59A1.32,1.32,0,0,1,152.23,181.29Zm15.47-5.47-1.92-.72a1.23,1.23,0,1,1,.81-2.32l1.91.72a1.37,1.37,0,0,1,.77,1.57A1.2,1.2,0,0,1,167.7,175.82Zm3.31-21.2-.23,2.12a1.17,1.17,0,0,1-2.33-.27l.22-2.12a1.18,1.18,0,0,1,2.34.27Zm-21.88,44.23,1.59-1.4a1.21,1.21,0,0,1,1.58,1.84l-1.6,1.4a1.21,1.21,0,1,1-1.57-1.84Zm5.94-41.25,1.88.93a1.21,1.21,0,0,1-1.1,2.16l-1.87-.93a1.21,1.21,0,0,1-.54-1.63A1.31,1.31,0,0,1,155.07,157.6Zm23.55,22.66-2.09-.44a1.16,1.16,0,1,1,.48-2.28l2.08.43a1.18,1.18,0,0,1,.91,1.38A1.19,1.19,0,0,1,178.62,180.26Zm-5.17,8.14-1.4-1.6a1.19,1.19,0,0,1,.13-1.7,1.2,1.2,0,0,1,1.71.14l1.41,1.59a1.19,1.19,0,0,1-.14,1.7A1.45,1.45,0,0,1,173.45,188.4Zm86.27-64.05,1.59-1.4a1.2,1.2,0,0,1,1.71.14,1.19,1.19,0,0,1-.13,1.7l-1.6,1.41a1.21,1.21,0,0,1-1.57-1.85ZM155.38,145.64l2.05-.45a1.19,1.19,0,0,1,.61,2.3l-2,.44a1.21,1.21,0,0,1-1.45-.84A1.13,1.13,0,0,1,155.38,145.64Zm-11.32,12.71,1.59-1.4a1.2,1.2,0,0,1,1.71.14,1.19,1.19,0,0,1-.13,1.7l-1.6,1.41a1.21,1.21,0,0,1-1.57-1.85ZM132.75,171l1.91-.79a1.22,1.22,0,1,1,.94,2.25l-1.9.8a1.33,1.33,0,0,1-1.6-.66A1.13,1.13,0,0,1,132.75,171Zm1.89,20.77-.43,2.08a1.17,1.17,0,0,1-2.29-.48l.43-2.08a1.17,1.17,0,0,1,2.29.48Zm-26.39,7.32-1.85-1a1.17,1.17,0,1,1,1.18-2l1.85,1a1.15,1.15,0,0,1,.43,1.61A1.12,1.12,0,0,1,108.25,199.05Zm24.56,7.26,2-.68a1.2,1.2,0,0,1,1.47.74,1.18,1.18,0,0,1-.74,1.47l-2,.68a1.21,1.21,0,0,1-1.48-.74A1.11,1.11,0,0,1,132.81,206.31Zm-8.45-24.73,1.91-.8a1.22,1.22,0,1,1,.94,2.26l-1.9.79a1.32,1.32,0,0,1-1.6-.65A1.18,1.18,0,0,1,124.36,181.58ZM136.8,152l1.9-.8a1.23,1.23,0,1,1,1,2.26l-1.9.8a1.35,1.35,0,0,1-1.61-.66A1.22,1.22,0,0,1,136.8,152Zm4,47.65,1.91-.8a1.34,1.34,0,0,1,1.6.66,1.33,1.33,0,0,1-.66,1.6l-1.9.8a1.33,1.33,0,0,1-1.6-.66A1.28,1.28,0,0,1,140.82,199.62Zm-16-32.25,1.43,1.48a1.22,1.22,0,1,1-1.76,1.7l-1.43-1.49a1.18,1.18,0,0,1,0-1.73A1.22,1.22,0,0,1,124.81,167.37Zm15.78,17.14-1.85-1a1.18,1.18,0,0,1,1.18-2l1.85,1a1.14,1.14,0,0,1,.43,1.6A1.11,1.11,0,0,1,140.59,184.51Zm-16.9-33.74,2,.2a1.23,1.23,0,0,1-.18,2.46l-2-.21a1.27,1.27,0,0,1-1.14-1.32A1.29,1.29,0,0,1,123.69,150.77Zm-27.95,39-1,1.85a1.17,1.17,0,0,1-2-1.18l1-1.85a1.15,1.15,0,0,1,1.61-.42A1.11,1.11,0,0,1,95.74,189.73Zm3,10.91,1.87.93a1.21,1.21,0,0,1-1.1,2.16l-1.87-.93a1.13,1.13,0,0,1-.53-1.63A1.21,1.21,0,0,1,98.69,200.64Zm5.68-42.6,1.43,1.48a1.22,1.22,0,1,1-1.76,1.7l-1.43-1.49a1.18,1.18,0,0,1,0-1.73A1.22,1.22,0,0,1,104.37,158Zm-7.81-10.51-1.85-1a1.18,1.18,0,1,1,1.18-2l1.85,1a1.17,1.17,0,1,1-1.18,2Zm33.55,13.13,1.12-1.72a1.25,1.25,0,0,1,2.12,1.31l-1.22,1.7a1.27,1.27,0,0,1-1.72.4A1.14,1.14,0,0,1,130.11,160.66ZM84.46,195.41l1.9-.79a1.22,1.22,0,0,1,1,2.25l-1.91.8a1.33,1.33,0,0,1-1.6-.66A1.18,1.18,0,0,1,84.46,195.41Zm28.43-41.24-.12-2.09a1.22,1.22,0,0,1,1.14-1.28,1.2,1.2,0,0,1,1.28,1.13l.12,2.09a1.21,1.21,0,0,1-1.14,1.28A1.3,1.3,0,0,1,112.89,154.17Zm1.34,35.93-1.57-1.3a1.19,1.19,0,1,1,1.47-1.87l1.58,1.31a1.14,1.14,0,0,1,.19,1.66A1.15,1.15,0,0,1,114.23,190.1Zm.61-18.62-.93,1.86a1.22,1.22,0,0,1-2.17-1.1l.93-1.86a1.17,1.17,0,0,1,1.63-.53A1.24,1.24,0,0,1,114.84,171.48Zm-31.41-23,1.91-.79a1.22,1.22,0,1,1,.94,2.25l-1.9.8a1.23,1.23,0,0,1-.95-2.26Zm7,25.95,1.43,1.48a1.23,1.23,0,0,1-1.77,1.7l-1.43-1.49a1.19,1.19,0,0,1,0-1.73A1.33,1.33,0,0,1,90.44,174.44Zm35.5,24.15-1.66,1.18a1.2,1.2,0,0,1-1.44-1.93l1.65-1.17a1.2,1.2,0,1,1,1.45,1.92ZM116.6,207l-.8-1.9a1.22,1.22,0,0,1,2.26-.94l.8,1.9a1.32,1.32,0,0,1-.65,1.6A1.23,1.23,0,0,1,116.6,207ZM104,184l1.91-.8a1.22,1.22,0,1,1,.94,2.25l-1.9.8a1.32,1.32,0,0,1-1.6-.66A1.17,1.17,0,0,1,104,184Zm-3.31-12.83,2,.2a1.23,1.23,0,0,1-.18,2.46l-2.13-.23a1.28,1.28,0,0,1-1.14-1.32A1.37,1.37,0,0,1,100.68,171.14Zm-9.07-10.22,1.9-.8a1.32,1.32,0,0,1,1.6.66,1.31,1.31,0,0,1-.65,1.59l-1.91.8a1.32,1.32,0,0,1-1.6-.66A1.2,1.2,0,0,1,91.61,160.92ZM225.2,112.21l2,.2a1.23,1.23,0,1,1-.18,2.46l-2-.21a1.27,1.27,0,0,1-1.14-1.31A1.21,1.21,0,0,1,225.2,112.21ZM72,155.78l1.9-.8a1.22,1.22,0,0,1,1,2.25L73,158a1.33,1.33,0,0,1-1.6-.66A1.13,1.13,0,0,1,72,155.78Zm-1.21,18.93-.43,2.07a1.17,1.17,0,1,1-2.29-.47l.43-2.08a1.17,1.17,0,0,1,2.29.48ZM44.44,182l-1.85-1a1.17,1.17,0,1,1,1.18-2l1.85,1a1.15,1.15,0,0,1,.43,1.61A1.11,1.11,0,0,1,44.44,182ZM69,189.28l2-.67a1.2,1.2,0,0,1,1.47.74,1.19,1.19,0,0,1-.73,1.47l-2,.67a1.2,1.2,0,0,1-1.48-.73A1.12,1.12,0,0,1,69,189.28Zm-8.45-24.72,1.91-.8a1.33,1.33,0,0,1,1.6.66A1.31,1.31,0,0,1,63.4,166l-2,.78a1.33,1.33,0,0,1-1.6-.66A1.3,1.3,0,0,1,60.55,164.56Zm16.81-28.7,1.91-.8a1.22,1.22,0,1,1,.94,2.25l-1.9.8a1.33,1.33,0,0,1-1.6-.66A1.21,1.21,0,0,1,77.36,135.86ZM77,182.6l1.91-.8a1.22,1.22,0,1,1,.94,2.26l-1.9.79a1.32,1.32,0,0,1-1.6-.65A1.18,1.18,0,0,1,77,182.6ZM58.84,143.5,60.27,145a1.22,1.22,0,1,1-1.77,1.69l-1.43-1.48a1.19,1.19,0,0,1,0-1.73A1.14,1.14,0,0,1,58.84,143.5Zm21.69,24.76-1.85-1a1.17,1.17,0,1,1,1.18-2l1.85,1a1.15,1.15,0,0,1,.43,1.61A1.19,1.19,0,0,1,80.53,168.26ZM59.88,133.75l2,.2A1.27,1.27,0,0,1,63,135.27a1.26,1.26,0,0,1-1.32,1.13l-2-.3a1.29,1.29,0,0,1-1.14-1.32A1.26,1.26,0,0,1,59.88,133.75ZM50.21,151l-1,1.85a1.18,1.18,0,0,1-2-1.18l1-1.85a1.17,1.17,0,0,1,2,1.18ZM35.88,189.24l1.91-.79a1.22,1.22,0,1,1,.94,2.25l-1.9.8a1.23,1.23,0,0,1-.95-2.26ZM32.48,180l1.43,1.49a1.22,1.22,0,0,1-1.76,1.69l-1.43-1.49a1.18,1.18,0,0,1,0-1.73A1.29,1.29,0,0,1,32.48,180ZM41,144.47l-1.85-1a1.17,1.17,0,1,1,1.18-2l1.85,1a1.17,1.17,0,1,1-1.18,2Zm25.24-.73L67.4,142a1.25,1.25,0,0,1,1.71-.41,1.27,1.27,0,0,1,.41,1.71L68.29,145a1.26,1.26,0,0,1-1.71.4A1.16,1.16,0,0,1,66.28,143.74ZM29.06,171.36l1.9-.8a1.33,1.33,0,0,1,1.6.66,1.31,1.31,0,0,1-.65,1.59l-1.91.8a1.32,1.32,0,0,1-1.6-.66A1.17,1.17,0,0,1,29.06,171.36Zm9.33-1-.11-2.08a1.21,1.21,0,0,1,2.42-.15l.11,2.09a1.21,1.21,0,0,1-1.14,1.28A1.12,1.12,0,0,1,38.39,170.36Zm12,2.82-1.57-1.3A1.19,1.19,0,1,1,50.3,170l1.57,1.3a1.15,1.15,0,0,1,.2,1.67A1.36,1.36,0,0,1,50.4,173.18Zm10-19.05L59.5,156a1.21,1.21,0,0,1-2.16-1.09l.93-1.87a1.17,1.17,0,0,1,1.63-.53A1.3,1.3,0,0,1,60.43,154.13Zm-35,34.79,1.9-.8a1.33,1.33,0,0,1,1.6.66,1.31,1.31,0,0,1-.65,1.59l-1.91.8a1.32,1.32,0,0,1-1.6-.66A1.17,1.17,0,0,1,25.42,188.92ZM37.5,155.77l1.43,1.49A1.22,1.22,0,0,1,37.17,159l-1.43-1.49a1.18,1.18,0,0,1,0-1.73A1.22,1.22,0,0,1,37.5,155.77Zm21.86,25-1.85-1a1.17,1.17,0,1,1,1.18-2l1.85,1a1.17,1.17,0,1,1-1.18,2Zm-7.55,6-.8-1.9a1.22,1.22,0,0,1,2.26-.94l.8,1.9a1.32,1.32,0,0,1-.65,1.6A1.19,1.19,0,0,1,51.81,186.8Zm-5.12-26.09,1.9-.8a1.33,1.33,0,0,1,1.6.66,1.31,1.31,0,0,1-.65,1.59l-1.89.7a1.33,1.33,0,0,1-1.6-.66A1.16,1.16,0,0,1,46.69,160.71Zm1.78-20.12,2,.21a1.23,1.23,0,1,1-.18,2.45l-2-.2a1.28,1.28,0,0,1-1.14-1.32A1.3,1.3,0,0,1,48.47,140.59Zm-14.76,8.32,1.9-.79a1.22,1.22,0,1,1,1,2.25l-1.9.8a1.34,1.34,0,0,1-1.61-.66A1.22,1.22,0,0,1,33.71,148.91Zm236-40.8a150.3,150.3,0,0,0-34.54-2.61c-21.93,1-40,6.88-53.74,17.69-24.1,18.84-46.59,26.21-66.9,22a60.07,60.07,0,0,1-19.93-8.14A51.73,51.73,0,0,0,77.28,130c-25.41-5.27-45,11.36-45.94,12l-.8.7L17,208l7.07-5.79c.12-.09,16.19-13.12,37.43-8.72a49.46,49.46,0,0,1,16.41,6.76,85.79,85.79,0,0,0,27.43,11.22c22.81,4.73,47.25-1,69-16.26C202.28,175.62,236.56,180,250,182.81c3,.62,4.77,1.09,4.77,1.09l3.26,1,15.73-75.86-3-.73Zm-.65,3.12.94.19-14.39,69.41a49.42,49.42,0,0,0-5-1.24c-13-2.7-49-7.57-78.17,12.94-18.29,12.79-41.89,20.79-66.47,15.7a79.13,79.13,0,0,1-26.43-10.79,55.66,55.66,0,0,0-17.41-7.19c-23-4.77-40.09,9.46-40.09,9.46l11.44-55.17s19-16.42,43.21-11.42a48.23,48.23,0,0,1,16.32,6.64,64.29,64.29,0,0,0,21,8.59c26,5.39,50.63-7.93,69.54-22.65,31.26-24.51,78.25-16,85.43-14.47" transform="translate(-0.1 0)"/></g></g><path d="M59.68,55.19a25.34,25.34,0,0,0,.13,2.61,24.67,24.67,0,0,0,.38,2.58c.17.85.38,1.7.63,2.53s.55,1.65.88,2.46.71,1.59,1.12,2.36.86,1.51,1.34,2.23a24.71,24.71,0,0,0,1.55,2.1c.56.67,1.14,1.32,1.76,1.93a24.57,24.57,0,0,0,1.93,1.75c.67.56,1.37,1.07,2.09,1.56s1.47.93,2.24,1.34,1.56.78,2.36,1.11a23.19,23.19,0,0,0,2.46.88,24,24,0,0,0,2.53.64c.85.17,1.71.29,2.58.38a25,25,0,0,0,2.6.13,25.34,25.34,0,0,0,2.61-.13c.87-.09,1.73-.21,2.58-.38a27.27,27.27,0,0,0,5-1.52,25.2,25.2,0,0,0,2.35-1.11c.77-.41,1.52-.86,2.24-1.34s1.42-1,2.1-1.56,1.31-1.13,1.93-1.75a24.57,24.57,0,0,0,1.75-1.93q.82-1,1.56-2.1c.48-.72.93-1.47,1.34-2.23s.78-1.56,1.11-2.36a24.89,24.89,0,0,0,.88-2.46c.25-.83.47-1.68.64-2.53s.29-1.71.38-2.58.13-1.74.13-2.61,0-1.74-.13-2.6-.21-1.73-.38-2.58-.39-1.7-.64-2.53a23.19,23.19,0,0,0-.88-2.46c-.33-.8-.7-1.59-1.11-2.36s-.86-1.51-1.34-2.24-1-1.42-1.56-2.09a24.57,24.57,0,0,0-1.75-1.93c-.62-.62-1.26-1.2-1.93-1.76s-1.37-1.07-2.1-1.55-1.47-.93-2.24-1.34-1.55-.78-2.35-1.12S94.81,30,94,29.75s-1.68-.46-2.53-.63a24.67,24.67,0,0,0-2.58-.38,25.34,25.34,0,0,0-2.61-.13,25,25,0,0,0-2.6.13,24.67,24.67,0,0,0-2.58.38c-.86.17-1.7.38-2.53.63s-1.66.55-2.46.88-1.59.71-2.36,1.12-1.51.86-2.24,1.34-1.42,1-2.09,1.55-1.32,1.14-1.93,1.76-1.2,1.26-1.76,1.93-1.07,1.37-1.55,2.09-.93,1.47-1.34,2.24S62,44.22,61.7,45s-.62,1.62-.88,2.46-.46,1.67-.63,2.53a24.67,24.67,0,0,0-.38,2.58A25,25,0,0,0,59.68,55.19Z" transform="translate(-0.1 0)"/></g></g></svg>