<svg xmlns="http://www.w3.org/2000/svg" xmlns:xlink="http://www.w3.org/1999/xlink" viewBox="0 0 266.15 68.72"><defs><style>.cls-1{fill:none;}.cls-2{clip-path:url(#clip-path);}.cls-3{fill:#f8f8f8;}.cls-4{clip-path:url(#clip-path-2);}.cls-5{fill:#71cbce;}</style><clipPath id="clip-path" transform="translate(-1.15)"><rect class="cls-1" x="81.61" width="186.75" height="27"/></clipPath><clipPath id="clip-path-2" transform="translate(-1.15)"><rect class="cls-1" y="39.47" width="186.75" height="29.25"/></clipPath></defs><title>Asset 2</title><g id="Layer_2" data-name="Layer 2"><g id="Layer_1-2" data-name="Layer 1"><g class="cls-2"><path class="cls-3" d="M267.29,27c-10,0-13.48-6.25-15.83-10.43-2-3.57-2.91-5.3-7.21-5.41-2.86.11-3.58,1.17-5.54,4.68C236.25,20.31,232.5,27,221.14,27c-10,0-13.54-6.25-15.83-10.43-2-3.57-2.91-5.3-7.22-5.41-2.85.11-3.58,1.17-5.54,4.68C190.09,20.31,186.34,27,175,27c-10,0-13.54-6.25-15.83-10.43-2-3.57-3-5.3-7.22-5.41-2.85.11-3.58,1.17-5.54,4.68C143.94,20.31,140.19,27,128.83,27c-10,0-13.53-6.25-15.83-10.43-2-3.57-2.91-5.25-7.22-5.41-2.85.11-3.58,1.17-5.53,4.68C97.78,20.31,94,27,82.68,27V15.84c4.81,0,5.71-1.67,7.83-5.41S95.77,1,104.16.11A3.17,3.17,0,0,1,105.23,0h1.11a4.54,4.54,0,0,1,.9.06c9.73.78,13.2,6.91,15.5,11.1,2.07,3.73,2.74,4.68,6,4.68,4.75,0,5.7-1.67,7.77-5.41S141.81,1,150.2.11A8.66,8.66,0,0,1,151.32,0h1.12a4.54,4.54,0,0,1,.9.06c9.79.72,13.2,6.91,15.55,11.1,2.07,3.73,2.74,4.68,6,4.68,4.81,0,5.71-1.67,7.78-5.41S188,1,196.36.11A8.33,8.33,0,0,1,197.48,0h1.06a4.44,4.44,0,0,1,.89.06C209.22.78,212.64,7,215,11.16c2.07,3.73,2.74,4.68,6,4.68,4.75,0,5.71-1.67,7.78-5.41S234.12,1,242.46.11A7.45,7.45,0,0,1,243.57,0h1.12a4.54,4.54,0,0,1,.9.06c9.9.78,13.31,6.91,15.66,11.1,2.07,3.73,2.74,4.68,6,4.68Z" transform="translate(-1.15)"/></g><g class="cls-4"><path class="cls-5" d="M149,51.14a.5.5,0,1,1-.49-.5C148.82,50.58,149,50.81,149,51.14Zm7.9-3.46a.5.5,0,1,1-.5-.5C156.72,47.12,156.94,47.34,156.94,47.68Zm8.4-3.74a.5.5,0,0,1-.5.5.5.5,0,0,1,0-1C165.11,43.38,165.34,43.66,165.34,43.94Zm6.35,1a.5.5,0,1,1-.5-.5A.55.55,0,0,1,171.69,44.94Zm-9.28,4.3a.5.5,0,0,1-.5.5.5.5,0,0,1,0-1C162.19,48.68,162.41,49,162.41,49.24Zm12.76,9.88a.5.5,0,1,1-1,0,.5.5,0,0,1,1,0Zm1.05-6.7a.51.51,0,0,1-.5.51.51.51,0,0,1,0-1C176,51.87,176.22,52.15,176.22,52.42Zm-8-1.28a.5.5,0,1,1-.5-.5C168,50.58,168.21,50.81,168.21,51.14ZM74.1,43.38a.5.5,0,1,1-.5-.5A.5.5,0,0,1,74.1,43.38Zm-11.71,4.3a.5.5,0,1,1-.49-.5C62.17,47.12,62.39,47.34,62.39,47.68Zm5.3.5a.5.5,0,1,1-.49-.5A.49.49,0,0,1,67.69,48.18Zm13.7.5a.5.5,0,1,1-.5-.5A.5.5,0,0,1,81.39,48.68Zm1.77,10.44a.5.5,0,0,1-.5.51.51.51,0,0,1-.5-.51.5.5,0,0,1,.5-.5A.5.5,0,0,1,83.16,59.12Zm-7.57-9.38a.5.5,0,1,1-.49-.5A.5.5,0,0,1,75.59,49.74Zm6.52,5.42a.5.5,0,0,1-.5-.5.5.5,0,1,1,1,0A.54.54,0,0,1,82.11,55.16Zm68.59,5a.5.5,0,1,1-1,0,.49.49,0,0,1,.49-.5A.47.47,0,0,1,150.7,60.18Zm-5-1.06a.5.5,0,1,1-1,0,.5.5,0,1,1,1,0Zm-3.87,6.59a.5.5,0,1,1-.49-.5A.49.49,0,0,1,141.86,65.71ZM155.51,53.6a.5.5,0,0,1-.5.5.5.5,0,0,1-.5-.5.5.5,0,0,1,.5-.51C155.28,53,155.51,53.26,155.51,53.6ZM134.3,65.21a.5.5,0,0,1-.5.5.5.5,0,0,1-.5-.5.51.51,0,0,1,.5-.51C134.08,64.65,134.3,64.93,134.3,65.21Zm-1.05-5.58a.5.5,0,1,1-.5-.51A.5.5,0,0,1,133.25,59.63Zm-4.7-10.39a.5.5,0,1,1-.49-.5A.49.49,0,0,1,128.55,49.24Zm-12-.56a.5.5,0,1,1-.5-.5A.5.5,0,0,1,116.57,48.68ZM127,54.1a.5.5,0,1,1-.49-.5A.49.49,0,0,1,127,54.1Zm-9.88-11.67a.5.5,0,1,1-.5-.5C116.85,41.87,117.07,42.15,117.07,42.43Zm6,1.51a.5.5,0,1,1-.5-.5A.5.5,0,0,1,123.09,43.94ZM88.52,58.06a.5.5,0,0,1-.5.5.5.5,0,1,1,0-1A.5.5,0,0,1,88.52,58.06ZM104.7,51a.5.5,0,1,1-1,0,.5.5,0,0,1,.5-.5C104.48,50.41,104.7,50.64,104.7,51Zm5.91,1.45a.5.5,0,1,1-.5-.5C110.39,51.87,110.61,52.15,110.61,52.42ZM100.28,64.15a.5.5,0,0,1-.5.5.5.5,0,0,1-.5-.5.51.51,0,0,1,.5-.51A.5.5,0,0,1,100.28,64.15ZM103,57a.5.5,0,1,1-.5-.5A.5.5,0,0,1,103,57Zm-9,6.64a.5.5,0,1,1-.5-.5A.47.47,0,0,1,94,63.64Zm3.31-4.52a.5.5,0,1,1-1,0,.5.5,0,1,1,1,0Zm-36.5,1.57a.5.5,0,1,1-.5-.51A.5.5,0,0,1,60.85,60.69Zm-5-1.06a.5.5,0,1,1-.5-.51A.5.5,0,0,1,55.88,59.63Zm-6.52-1.57a.5.5,0,1,1-.5-.5A.5.5,0,0,1,49.36,58.06ZM64.6,53.6a.5.5,0,1,1-1,0,.5.5,0,1,1,1,0ZM43.4,60.18a.51.51,0,0,1-.5.51.5.5,0,0,1-.5-.51.5.5,0,0,1,.5-.5C43.17,59.63,43.4,59.85,43.4,60.18ZM38.65,49.74a.51.51,0,0,1-.5.51.55.55,0,0,1-.55-.51.5.5,0,0,1,.49-.5A.56.56,0,0,1,38.65,49.74Zm-.5,12a.5.5,0,0,1-.5.5.5.5,0,0,1-.5-.5.51.51,0,0,1,.5-.51A.5.5,0,0,1,38.15,61.75ZM26.72,49.24a.5.5,0,1,1-.5-.5C26.44,48.68,26.72,49,26.72,49.24ZM37.1,54.6a.5.5,0,0,1-.5.5.5.5,0,0,1,0-1A.5.5,0,0,1,37.1,54.6ZM27.21,42.93a.5.5,0,1,1-.49-.5A.5.5,0,0,1,27.21,42.93Zm6,1.51a.5.5,0,1,1-1,0,.46.46,0,0,1,.5-.5A.49.49,0,0,1,33.23,44.44ZM57.42,52a.5.5,0,1,1-.49-.5A.49.49,0,0,1,57.42,52ZM19.7,44.44a.5.5,0,1,1-1,0,.45.45,0,0,1,.44-.5A.51.51,0,0,1,19.7,44.44Zm-4.86,7a.5.5,0,1,1-.49-.51A.5.5,0,0,1,14.84,51.48Zm-1.65,6.08a.5.5,0,0,1-.5.5.5.5,0,1,1,0-1A.5.5,0,0,1,13.19,57.56Zm166.73,8.37c.05-.05.05-.11.05-.22a.5.5,0,0,0-.5-.5.47.47,0,0,0-.49.44c-5.08-1.73-7.29-5.8-9.06-9-.22-.39-.39-.78-.61-1.12-1.49-2.85-2.54-4.74-6.9-4.86h-.11c-3.54.12-5,1.79-7,5.25-2.43,4.47-5.8,10.61-16.4,10.61-5.69,0-9.06-2.12-11.32-4.75a.48.48,0,0,0,.33-.5.5.5,0,0,0-.5-.5.49.49,0,0,0-.44.28,32.15,32.15,0,0,1-2.71-4.36c-.22-.39-.38-.78-.61-1.11-1.49-2.85-2.54-4.75-6.9-4.86h-.11c-3.53.11-5,1.79-7,5.25-2.43,4.46-5.8,10.6-16.4,10.6a16.65,16.65,0,0,1-6.46-1.17v-.11a.5.5,0,0,0-.5-.5A.49.49,0,0,0,86,65c-3.86-2-5.74-5.47-7.29-8.26-.22-.39-.38-.78-.6-1.12-1.49-2.84-2.54-4.74-6.91-4.85h-.11c-3.53.11-5,1.78-7,5.24C62,59.9,59.25,64.93,51.84,66.27a.52.52,0,0,0-.49-.45.5.5,0,0,0-.5.5v.06a26.41,26.41,0,0,1-3.09.22,18.75,18.75,0,0,1-3.65-.33.5.5,0,0,0,.28-.45.5.5,0,1,0-1,0,.42.42,0,0,0,.11.28c-6-1.56-8.45-6-10.33-9.49-.22-.39-.44-.78-.61-1.12-1.49-2.84-2.48-4.74-6.9-4.85h-.11a6.06,6.06,0,0,0-4.86,2.18.54.54,0,0,0-.5-.4.5.5,0,0,0-.5.51.5.5,0,0,0,.5.5,28.49,28.49,0,0,0-1.55,2.46c-1.65,3.07-3.75,6.86-8.28,9,.05-.05.05-.11.05-.22a.5.5,0,1,0-1,0,.57.57,0,0,0,.33.5,18.68,18.68,0,0,1-6.35,1.29V64.59a.55.55,0,0,0,.28.11.5.5,0,0,0,0-1,.48.48,0,0,0-.28.11V57.5a10.25,10.25,0,0,0,2.15-.33.52.52,0,0,0,.34.89.49.49,0,0,0,.49-.5.49.49,0,0,0-.44-.5c2.43-.84,3.48-2.74,5-5.47,2.1-3.8,4.92-9,12.59-9.77h.11a2.78,2.78,0,0,1,.94-.11h1.11a3.54,3.54,0,0,1,.72,0h.11c9,.73,12.09,6.37,14.41,10.55,2.15,3.91,3.09,5.25,7,5.25,5.41,0,6.63-2.23,8.67-6C58.53,48,61.18,43.16,68,42a.57.57,0,0,0-.28.44.5.5,0,0,0,.5.5.5.5,0,0,0,.5-.5.54.54,0,0,0-.39-.5,3.49,3.49,0,0,1,.78-.11h.11a3.92,3.92,0,0,1,.88-.11h1.1a3.49,3.49,0,0,1,.72,0H72c9.06.67,12.15,6.37,14.47,10.5,2.16,3.9,3.09,5.24,7,5.24,5.41,0,6.63-2.23,8.67-6,1.38-2.57,3.15-5.69,6.46-7.76v.11a.5.5,0,1,0,1,0,.54.54,0,0,0-.39-.5,15.19,15.19,0,0,1,5.47-1.62h.11a5.29,5.29,0,0,1,.88-.11h1.11a2.84,2.84,0,0,1,.71.06h.11c9.06.78,12.21,6.42,14.47,10.6,2,3.63,2.93,5,6.13,5.25a.5.5,0,0,0,.5.5.5.5,0,0,0,.5-.5c5.19-.06,6.4-2.29,8.45-6,1.82-3.3,4.25-7.71,9.94-9.27v.11a.5.5,0,1,0,1,0,.72.72,0,0,0-.11-.33,15.6,15.6,0,0,1,1.77-.28h.11a4,4,0,0,1,.88-.11h1.11a3.49,3.49,0,0,1,.72,0h.11c9.05.67,12.2,6.37,14.47,10.5,1.93,3.51,2.87,5,5.85,5.24v3.58a.52.52,0,0,0-.5-.39.5.5,0,0,0,0,1,.53.53,0,0,0,.5-.39v5.08A13.5,13.5,0,0,1,179.92,65.93Zm4.63-10.6c-2.59,0-3-.45-5-4.13-2.38-4.3-6-10.83-16.18-11.67a5.6,5.6,0,0,0-1-.06h-1.1a8.4,8.4,0,0,0-1.22.12c-8.78.89-12.09,6.92-14.3,10.88-2,3.63-2.65,4.86-6.74,4.86-2.59,0-3-.45-5-4.13-2.38-4.3-6-10.83-16.18-11.67a5.94,5.94,0,0,0-1.05-.06h-1a9.09,9.09,0,0,0-1.27.12c-8.78.89-12.1,6.92-14.25,10.88-2,3.63-2.65,4.86-6.74,4.86-2.6,0-3-.45-5-4.13-2.37-4.3-6-10.83-16.18-11.67a5.49,5.49,0,0,0-1-.06H70.12a9.24,9.24,0,0,0-1.27.12c-8.78.89-12.09,6.92-14.3,10.88-2,3.63-2.65,4.86-6.74,4.86-2.59,0-3-.45-5-4.13-2.32-4.3-5.91-10.83-16.13-11.67a5.49,5.49,0,0,0-1-.06H24.56a10,10,0,0,0-1.27.12C14.51,40.48,11.2,46.51,9,50.47c-2,3.63-2.7,4.86-6.79,4.86H1.15V68.72h1.1c11.87,0,15.91-7.36,18.34-11.72,1.87-3.46,2.87-4,5-4.13,3.09.11,3.54,1,5,3.69.17.33.39.72.61,1.17,2.26,4.13,6.07,11,16.57,11,11.87,0,15.9-7.36,18.33-11.72C68,53.54,69,53,71.17,52.87c3.1.11,3.54,1,5,3.69.17.33.39.72.61,1.11,2.26,4.13,6,11,16.57,11,11.87,0,15.9-7.37,18.33-11.72,1.88-3.47,2.87-4,5-4.13,3.09.11,3.53.94,5,3.68.17.33.39.72.61,1.12,2.26,4.13,6.07,11,16.57,11,11.87,0,15.9-7.37,18.33-11.72,1.88-3.46,2.87-4,5.08-4.13,3.1.11,3.54,1,5,3.68.17.34.39.73.61,1.12,2.27,4.13,6.08,11,16.57,11h1.1V55.16h-1Z" transform="translate(-1.15)"/></g></g></g></svg>